<?xml version="1.0" encoding="utf-8"?>
<!-- Generator: Adobe Illustrator 21.1.0, SVG Export Plug-In . SVG Version: 6.00 Build 0)  -->
<svg version="1.1" id="Layer_1" xmlns="http://www.w3.org/2000/svg" xmlns:xlink="http://www.w3.org/1999/xlink" x="0px" y="0px"
	 viewBox="0 0 252 360" style="enable-background:new 0 0 252 360;" xml:space="preserve">
<style type="text/css">
	.st0{fill:#8F9697;}
</style>
<path class="st0" d="M229.1,146.9l-20.7-53.3c-3.9-10.2-12.3-18.9-28.3-19h-29.1h-49.8H71.6c-15.9,0.1-24.3,8.8-28.3,19l-20.7,53.3
	C14.5,148,0,157.6,0,175.9v67.9h20.2v21.7c-0.1,26.7,37.8,26.4,37.8,0v-21.7H126h67.9v21.7c0.1,26.4,37.9,26.7,37.9,0v-21.7H252
	v-67.9C251.9,157.6,237.4,148,229.1,146.9z M39.6,202.8c-9.7,0-17.5-8-17.4-17.9c0-10,7.8-18,17.4-18c9.6-0.1,17.5,8,17.4,18
	C57.1,194.8,49.3,202.8,39.6,202.8z M126,146.4h-0.2H44.2l15.6-42c1.9-6,4.8-10.2,11.7-10.3h54.4h0.2h54.5
	c6.8,0.1,9.7,4.4,11.7,10.3l15.6,42H126z M212.4,202.8c-9.7,0-17.6-8-17.6-17.9c0.1-10,7.9-18,17.6-18c9.6-0.1,17.4,8,17.4,18
	C229.8,194.8,221.9,202.8,212.4,202.8z"/>
</svg>
