<?xml version="1.0" encoding="utf-8"?>
<!-- Generator: Adobe Illustrator 21.1.0, SVG Export Plug-In . SVG Version: 6.00 Build 0)  -->
<svg version="1.1" id="Layer_1" xmlns="http://www.w3.org/2000/svg" xmlns:xlink="http://www.w3.org/1999/xlink" x="0px" y="0px"
	 viewBox="0 0 252 360" style="enable-background:new 0 0 252 360;" xml:space="preserve">
<style type="text/css">
	.st0{fill:#8F9697;}
</style>
<g transform="translate(0,-952.36218)">
	<path class="st0" d="M60.5,1161.3c-19.5,0-35.3-15.8-35.3-35.3c0-19.5,15.8-35.3,35.3-35.3c0-16.7,13.5-30.2,30.2-30.2
		c9.1,0,17.1,4,22.7,10.3c6.2-17.7,23-30.5,42.8-30.5c25.1,0,45.4,20.3,45.4,45.4c0,0.7,0,1.5-0.1,2.2c14.7,5.2,25.3,19.1,25.3,35.6
		c0,20.9-16.9,37.8-37.8,37.8h-65.5H60.5z"/>
</g>
</svg>
