<?xml version="1.0" encoding="utf-8"?>
<!-- Generator: Adobe Illustrator 21.1.0, SVG Export Plug-In . SVG Version: 6.00 Build 0)  -->
<svg version="1.1" id="Layer_1" xmlns="http://www.w3.org/2000/svg" xmlns:xlink="http://www.w3.org/1999/xlink" x="0px" y="0px"
	 viewBox="0 0 252 360" style="enable-background:new 0 0 252 360;" xml:space="preserve">
<style type="text/css">
	.st0{fill:#8F9697;}
</style>
<g>
	<path class="st0" d="M196.6,181.3V80.5c0-2.8-2.3-5-5-5H25.2c-2.8,0-5,2.3-5,5v100.8c0,2.8,2.3,5,5,5h166.3
		C194.3,186.3,196.6,184,196.6,181.3z M47.9,118.3c-8.3,0-15.1-6.8-15.1-15.1S39.6,88,47.9,88S63,94.8,63,103.1
		S56.2,118.3,47.9,118.3z M108.4,163.6c-18.1,0-32.8-14.6-32.8-32.8s14.6-32.8,32.8-32.8s32.8,14.6,32.8,32.8
		S126.5,163.6,108.4,163.6z M168.8,173.7c-8.3,0-15.1-6.8-15.1-15.1s6.8-15.1,15.1-15.1c8.3,0,15.1,6.8,15.1,15.1
		S177.2,173.7,168.8,173.7z"/>
	<path class="st0" d="M42.8,198.9c0,2.8,2.3,5,5,5h161.3c2.8,0,5-2.3,5-5v-95.8c0-2.8-2.3-5-5-5c-2.8,0-5,2.3-5,5v90.7H47.9
		C45.1,193.9,42.8,196.1,42.8,198.9z"/>
	<path class="st0" d="M226.8,115.7c-2.8,0-5,2.3-5,5v90.7H65.5c-2.8,0-5,2.3-5,5c0,2.8,2.3,5,5,5h161.3c2.8,0,5-2.3,5-5v-95.8
		C231.8,118,229.6,115.7,226.8,115.7z"/>
</g>
</svg>
