<?xml version="1.0" encoding="utf-8"?>
<!-- Generator: Adobe Illustrator 21.1.0, SVG Export Plug-In . SVG Version: 6.00 Build 0)  -->
<svg version="1.1" id="Layer_1" xmlns="http://www.w3.org/2000/svg" xmlns:xlink="http://www.w3.org/1999/xlink" x="0px" y="0px"
	 viewBox="0 0 252 360" style="enable-background:new 0 0 252 360;" xml:space="preserve">
<style type="text/css">
	.st0{fill:#8F9697;}
</style>
<path class="st0" d="M21.4,206.5c-1.9-21.7,4.7-43.3,18.6-60.1C59.6,122,93.1,74.6,90.7,38.8c-0.4-4.4,2.8-8.3,7.2-8.8
	c1.7-0.2,3.3,0.2,4.8,1c25.8,14.1,79.1,49.7,69.6,136c13.5-6.5,25-16.4,33.6-28.7c1.5-2.2,4-3.6,6.7-3.6c3.4,0,6.4,2.1,7.6,5.3
	c13.1,34.7,31.4,112.4-60.5,126.7c-2.1,0-3.8-1.7-3.8-3.8c0-0.1,0-0.3,0-0.4c2.9-25.9-6.7-51.6-25.8-69.3c-2.3-2.1-5.8-2.1-8.1,0
	c-19.1,17.6-28.7,43.2-25.9,69.1c0.2,2.1-1.3,3.9-3.3,4.2c-0.2,0-0.5,0-0.7,0C75.8,265.3,26.6,256.9,21.4,206.5z"/>
</svg>
