<?xml version="1.0" encoding="utf-8"?>
<!-- Generator: Adobe Illustrator 21.1.0, SVG Export Plug-In . SVG Version: 6.00 Build 0)  -->
<svg version="1.1" id="Layer_1" xmlns="http://www.w3.org/2000/svg" xmlns:xlink="http://www.w3.org/1999/xlink" x="0px" y="0px"
	 viewBox="0 0 290.1 73.4" style="enable-background:new 0 0 290.1 73.4;" xml:space="preserve">
<style type="text/css">
	.st0{fill:#C41230;}
	.st1{fill:#FFFFFF;}
	.st2{fill:none;stroke:#000000;stroke-width:1.071;}
	.st3{fill:none;stroke:#000000;stroke-width:0.219;}
	.st4{fill:none;stroke:#000000;stroke-width:0.223;}
</style>
<g>
	<path d="M171.2,12.5c-0.6-1.3-1.5-2.3-3.1-2.7V9.1c1,0,4.3,0.1,5,0.1c0.7,0,3.7-0.1,4.7-0.1v0.8c-0.9,0.2-1.9,0.7-1.9,1.6
		c0,0.7,0.4,1.6,1.2,3.3l7.2,16.4l6.8-16.4c0.5-1.3,0.9-2.3,0.9-3.1c0-0.9-0.8-1.5-1.9-1.7V9.1c0.9,0,3.1,0.1,3.8,0.1
		c0.6,0,3.2-0.1,4.2-0.1v0.8c-1.7,0.5-2.7,1.4-3.7,3.6l-10,23.6h-2.1L171.2,12.5z"/>
	<path d="M268.1,34.8c1,0.2,2.9,0.3,4.4,0.3c8.3,0,12.7-5,12.7-12c0-7.3-4.6-12.4-12.4-12.4c-1.6,0-3.6,0.1-4.7,0.3V34.8z M261,36.2
		c1.7-0.3,2.6-1,2.6-2.5V12.2c0-1.5-0.9-2.1-2.5-2.4V9c0.9,0,4,0.1,4.8,0.1c1.4,0,5.2-0.3,8.2-0.3c9.9,0,16,5.5,16,14
		c0,8.2-6.3,14.3-16.5,14.3c-2.9,0-6.5-0.2-7.9-0.2c-0.8,0-3.7,0.1-4.6,0.1V36.2z M214.3,25.8l-4.4-10.3l-4.1,10.3H214.3z
		 M196.5,36.2c1.8-0.4,2.7-1.6,3.4-3.1l8.9-21.5c0.4-0.9,0.8-2.7,0.8-2.7h2.5c0,0,0.4,1.8,0.8,2.7l9.4,21.5c0.7,1.5,1.4,2.6,3.3,3
		l0,0.7c-1,0-4.2-0.1-4.9-0.1c-0.7,0-3.8,0.1-4.8,0.1l0-0.7c1.4-0.3,1.8-1,1.8-1.7c0-0.6-0.2-1.2-0.5-1.9l-2-4.6l-10.5,0l-1.8,4.6
		c-0.2,0.5-0.5,1.3-0.5,1.8c0,0.8,0.4,1.4,2,1.8l0,0.7c-0.9,0-3.3-0.1-3.9-0.1l-4.1,0.1L196.5,36.2z M125.8,25.8l-4.4-10.3
		l-4.1,10.3H125.8z M108.1,36.2c1.8-0.4,2.7-1.6,3.4-3.1l8.9-21.5c0.4-0.9,0.8-2.7,0.8-2.7h2.5c0,0,0.4,1.8,0.8,2.7l9.4,21.5
		c0.7,1.5,1.4,2.6,3.3,3l0,0.7c-1,0-4.2-0.1-4.9-0.1c-0.7,0-3.8,0.1-4.8,0.1l0-0.7c1.4-0.3,1.8-1,1.8-1.7c0-0.6-0.2-1.2-0.5-1.9
		l-2-4.6l-10.5,0l-1.8,4.6c-0.2,0.5-0.5,1.3-0.5,1.8c0,0.8,0.4,1.4,2,1.8l0,0.7c-0.9,0-3.4-0.1-3.9-0.1l-4,0.1L108.1,36.2z
		 M125.8,25.8l-4.4-10.3l-4.1,10.3H125.8z M108.1,36.2c1.8-0.4,2.7-1.6,3.4-3.1l8.9-21.5c0.4-0.9,0.8-2.7,0.8-2.7h2.5
		c0,0,0.4,1.8,0.8,2.7l9.4,21.5c0.7,1.5,1.4,2.6,3.3,3l0,0.7c-1,0-4.2-0.1-4.9-0.1c-0.7,0-3.8,0.1-4.8,0.1l0-0.7
		c1.4-0.3,1.8-1,1.8-1.7c0-0.6-0.2-1.2-0.5-1.9l-2-4.6l-10.5,0l-1.8,4.6c-0.2,0.5-0.5,1.3-0.5,1.8c0,0.8,0.4,1.4,2,1.8l0,0.7
		c-0.9,0-3.4-0.1-3.9-0.1l-4,0.1L108.1,36.2z M74,36.2c1.3-0.3,2.2-0.9,2.2-2.4V12.2c0-1.4-0.9-2-2.2-2.4V9c0.7,0,3.6,0.1,4.4,0.1
		c0.8,0,4-0.1,4.7-0.1v0.8c-1.3,0.3-2.3,0.9-2.3,2.4v9.1h16.1v-9.1c0-1.5-0.9-2.1-2.2-2.4V9c0.7,0,3.8,0.1,4.6,0.1
		c0.7,0,3.7-0.1,4.4-0.1v0.8c-1.3,0.3-2.3,0.9-2.3,2.4v21.7c0,1.4,0.9,2,2.3,2.4v0.7c-0.7,0-3.7-0.1-4.4-0.1c-0.8,0-3.9,0.1-4.6,0.1
		v-0.7c1.3-0.3,2.2-0.9,2.2-2.4V23.6H80.7v10.2c0,1.5,0.9,2,2.3,2.4v0.7c-0.7,0-3.8-0.1-4.7-0.1c-0.7,0-3.7,0.1-4.4,0.1V36.2z"/>
	<path d="M148.4,22.3c0.9,0.1,2.2,0.2,3.5,0.2c5.2,0,6.9-3,6.9-5.7c0-3.8-2.5-6.1-7.1-6.1c-0.9,0-2.3,0.1-3.3,0.3V22.3z M148.4,33.6
		c0,1.4,0.9,2.2,2.6,2.6V37c-0.9,0-4-0.1-4.8-0.1c-0.7,0-3.7,0.1-4.7,0.1v-0.8c1.6-0.3,2.5-1.1,2.5-2.6V12.2c0-1.3-0.7-2.1-2.5-2.4
		V9c0.9,0,3.9,0.1,4.7,0.1c1.4,0,5.2-0.2,6.8-0.2c6.7,0,10.4,2.8,10.4,7.5c0,3.7-2.8,6.2-7,7.3c0,0,1,0.6,1.9,1.7
		c1.2,1.4,4.5,6,5.9,7.6c1.3,1.6,3,3.4,4.8,3.5v0.6c-0.9,0.2-2.2,0.3-3.3,0.3c-2.3,0-4.1-0.8-5.8-2.9c-1.5-1.8-4.3-5.8-5.8-7.7
		c-1-1.2-2.1-2.2-4.3-2.6c-0.4-0.1-0.8-0.1-1.3-0.2V33.6z"/>
	<path d="M236.4,22.3c0.9,0.1,2.2,0.2,3.5,0.2c5.2,0,6.9-3,6.9-5.7c0-3.8-2.5-6.1-7.1-6.1c-0.9,0-2.3,0.1-3.3,0.3V22.3z M236.4,33.6
		c0,1.4,0.9,2.2,2.6,2.6V37c-0.9,0-4-0.1-4.8-0.1c-0.7,0-3.7,0.1-4.7,0.1v-0.8c1.6-0.3,2.5-1.1,2.5-2.6V12.2c0-1.3-0.7-2.1-2.5-2.4
		V9c0.9,0,3.9,0.1,4.7,0.1c1.4,0,5.2-0.2,6.8-0.2c6.7,0,10.4,2.8,10.4,7.5c0,3.7-2.8,6.2-7,7.3c0,0,1,0.6,1.9,1.7
		c1.2,1.4,4.4,6,5.7,7.6c1.3,1.6,3,3.4,4.8,3.5v0.6c-0.9,0.2-2.2,0.3-3.3,0.3c-2.3,0-4.1-0.8-5.8-2.9c-1.5-1.8-4.2-5.8-5.7-7.7
		c-1-1.2-2.1-2.2-4.3-2.6c-0.4-0.1-0.8-0.1-1.3-0.2V33.6z"/>
	<path class="st0" d="M192.6,61h0.4c0.2,0.8,0.7,1.5,1.3,2c0.7,0.5,1.7,0.7,2.6,0.7c1.9,0,3.1-0.9,3.1-2.4c0-1.5-1.5-2.2-3.4-3.1
		c-1.4-0.7-4.1-1.7-4.1-4.5c0-2.5,1.9-4,4.8-4c1.9,0,2.9,0.5,4.2,0.4l0,2.9h-0.4c-0.5-1.7-2.1-2.3-3.8-2.3c-1.9,0-2.7,1.1-2.7,2.3
		c0,1.6,1.8,2.5,3.4,3.3c2,0.9,4.2,1.9,4.2,4.4c0,2.4-1.9,4.1-5.2,4.1c-2,0-3.2-0.5-4.3-0.7L192.6,61z"/>
	<path class="st0" d="M223,63.9c0.7-0.2,1.1-0.5,1.1-1.2V51.5c0-0.7-0.4-1-1.1-1.2v-0.4c0.4,0,1.9,0.1,2.3,0.1
		c0.4,0,2.1-0.1,2.4-0.1v0.4c-0.7,0.2-1.2,0.5-1.2,1.2v4.7h8.3v-4.7c0-0.8-0.4-1.1-1.1-1.2v-0.4c0.4,0,1.9,0.1,2.4,0.1
		c0.4,0,2-0.1,2.3-0.1v0.4c-0.7,0.2-1.2,0.5-1.2,1.2v11.2c0,0.7,0.5,1,1.2,1.2v0.4c-0.3,0-1.9,0-2.3,0c-0.4,0-2,0-2.4,0v-0.4
		c0.7-0.2,1.1-0.5,1.1-1.2v-5.3h-8.3v5.3c0,0.8,0.5,1,1.2,1.2v0.4c-0.4,0-2,0-2.4,0c-0.4,0-1.9,0-2.3,0V63.9z"/>
	<path class="st0" d="M218.9,60.7l-0.2,3.2c-1.1-0.1-2.6,0.7-5.1,0.7c-5.3,0-7.8-3.3-7.8-7.4c0-4.4,3.1-7.6,7.6-7.6
		c2.2,0,3.6,0.8,5,0.7l0.1,3.2h-0.4c-0.8-1.9-2.7-2.9-4.7-2.9c-3.3,0-5.1,2.9-5.1,6.4c0,2.9,1.4,6.4,5.5,6.4c2.3,0,3.9-0.8,4.6-2.9
		H218.9z"/>
	<path class="st0" d="M254.1,57.2c0-3.3-1.5-6.5-4.9-6.5s-4.9,3.2-4.9,6.5s1.5,6.4,4.9,6.4S254.1,60.6,254.1,57.2 M241.9,57.2
		c0-4.2,2.9-7.6,7.4-7.6c4.5,0,7.4,3.4,7.4,7.6c0,4.2-2.9,7.5-7.4,7.5C244.7,64.7,241.9,61.4,241.9,57.2"/>
	<path class="st0" d="M272.3,57.2c0-3.3-1.5-6.5-4.9-6.5s-4.9,3.2-4.9,6.5s1.5,6.4,4.9,6.4S272.3,60.6,272.3,57.2 M260,57.2
		c0-4.2,2.9-7.6,7.4-7.6c4.5,0,7.4,3.4,7.4,7.6c0,4.2-2.9,7.5-7.4,7.5C262.9,64.7,260,61.4,260,57.2"/>
	<path class="st0" d="M96.5,49.9h9.1c0.3,0,0.8,0,1-0.2h0.4l-0.1,2.9h-0.4c-0.3-0.9-0.8-1.6-2.6-1.6h-3.8v5.2h3.1c0.4,0,1,0,1.2-0.1
		c0.7-0.1,1-0.5,1.1-1.1h0.4c0,0.4,0,1.4,0,1.7c0,0.3,0,1.4,0,1.8h-0.4c-0.2-0.6-0.5-1-1.1-1.2c-0.2-0.1-0.8-0.1-1.2-0.1h-3.1v5.8
		h4.4c1.9,0,2.4-0.8,2.8-1.9l0.4,0.1l-0.4,3c-1.4-0.1-2.2-0.1-3.8-0.1H99c-0.4,0-2,0.1-2.5,0.1V64c0.8-0.2,1.3-0.6,1.3-1.3v-11
		c0-0.7-0.4-1.1-1.3-1.3V49.9z"/>
	<path class="st0" d="M131.2,51.7c0-0.7-0.4-1.1-1.3-1.3v-0.4c0.5,0,2.1,0.1,2.5,0.1c0.4,0,2-0.1,2.5-0.1v0.4
		c-0.9,0.2-1.3,0.6-1.3,1.3v11c0,0.7,0.4,1.1,1.3,1.3v0.4c-0.5,0-2-0.1-2.5-0.1c-0.4,0-2,0.1-2.5,0.1V64c0.9-0.2,1.3-0.6,1.3-1.3
		V51.7z"/>
	<path class="st0" d="M162.7,58.5l-2.3-5.4l-2.1,5.4H162.7z M153.5,63.9c0.9-0.2,1.4-0.8,1.7-1.6l4.6-11.1c0.2-0.5,0.4-1.4,0.4-1.4
		h1.3c0,0,0.2,0.9,0.4,1.4l4.9,11.1c0.3,0.8,0.7,1.3,1.7,1.6l0,0.4c-0.5,0-2.2,0-2.5,0c-0.4,0-1.9,0-2.5,0l0-0.4
		c0.7-0.2,1-0.5,1-0.9c0-0.3-0.1-0.6-0.3-1l-1-2.4h-5.4l-0.9,2.4c-0.1,0.3-0.2,0.7-0.2,0.9c0,0.4,0.2,0.7,1,0.9l0,0.4
		c-0.5,0-1.7,0-2,0l-2.1,0L153.5,63.9z"/>
	<path class="st0" d="M151.6,60.7l-0.2,3.2c-1.1-0.1-2.6,0.7-5.1,0.7c-5.3,0-7.8-3.3-7.8-7.4c0-4.4,3.1-7.6,7.6-7.6
		c2.2,0,3.6,0.8,5,0.7l0.1,3.2h-0.4c-0.8-1.9-2.7-2.9-4.7-2.9c-3.3,0-5.1,2.9-5.1,6.4c0,2.9,1.4,6.4,5.5,6.4c2.3,0,3.9-0.8,4.6-2.9
		H151.6z"/>
	<path class="st0" d="M182.2,61.3c-0.5,1.1-1,1.9-2.8,1.9h-4.4V51.7c0-0.8,0.5-1.1,1.3-1.3v-0.4c-0.5,0-2.1,0.1-2.5,0.1
		c-0.5,0-2-0.1-2.5-0.1v0.4c0.9,0.2,1.3,0.6,1.3,1.3v11c0,0.8-0.4,1.2-1.3,1.3v0.4c0.5,0,2.1-0.1,2.5-0.1c0,0,0,0,0,0l0,0h4.6
		c1.6,0,2.4,0,3.8,0.1l0.4-3L182.2,61.3z"/>
	<path class="st0" d="M289.1,61.3c-0.5,1.1-1,1.9-2.8,1.9h-4.4V51.7c0-0.8,0.5-1.1,1.3-1.3v-0.4c-0.5,0-2.1,0.1-2.5,0.1
		c-0.5,0-2-0.1-2.5-0.1v0.4c0.9,0.2,1.3,0.6,1.3,1.3v11c0,0.8-0.4,1.2-1.3,1.3v0.4c0.5,0,2.1-0.1,2.5-0.1c0,0,0,0,0,0l0,0h4.6
		c1.6,0,2.4,0,3.8,0.1l0.4-3L289.1,61.3z"/>
	<path class="st0" d="M115.3,63.2c0.5,0.1,1.4,0.1,2.2,0.1c4.3,0,6.5-2.4,6.5-6.2c0-3.7-2.4-6.4-6.4-6.4c-0.8,0-1.8,0.1-2.3,0.2
		V63.2z M111.6,63.9c0.9-0.2,1.3-0.5,1.3-1.3V51.5c0-0.8-0.5-1.1-1.3-1.2v-0.4c0.5,0,2.1,0.1,2.5,0.1c0.7,0,2.6-0.2,4.1-0.2
		c5.1,0,8.2,2.9,8.2,7.2c0,4.2-3.2,7.4-8.5,7.4c-1.5,0-3.3-0.1-4-0.1c-0.4,0-1.9,0.1-2.4,0.1V63.9z"/>
	<path class="st0" d="M91.2,62.3l-0.8-10.7c-0.1-0.7,0.3-1.1,1.1-1.3v-0.4c-0.6,0-1.5,0-1.9,0c-0.3,0-1,0-1.5,0L83.4,61l-4.7-11.1
		c-0.5,0-1.2,0-1.6,0c-0.3,0-1.5,0-2,0v0.4c0.8,0.1,1.2,0.6,1.2,1.3l-0.8,10.7C75.4,63.2,75,63.8,74,64v0.4l2.1,0c0.3,0,1.5,0,2,0
		V64c-1-0.3-1.2-0.8-1.2-1.5l0.6-9.5l4.9,11.4h0.8l5-11.4l0.6,9.5c0,0.6-0.2,1.2-1.2,1.5v0.4c0.5,0,2.2,0,2.5,0l2.5,0V64
		C91.7,63.8,91.3,63.3,91.2,62.3"/>
	<path class="st0" d="M60.2,21.7H0.8v-3.5h59.4V21.7z M30.3,0.5l-30,0l-0.1,24c0,29.4,29.5,48.2,29.8,48.4l0.1,0.1
		c0.1,0,0.3-0.1,0.3-0.1c5-3.3,30-21,30-48.2l0-24.1C60.3,0.5,30.3,0.5,30.3,0.5"/>
	<path d="M10.4,3.5c2-0.9,4.2-0.2,6.4-0.4c0.6,0.1,1.4-0.3,1.8,0.3c0,0.6,0,1.3,0,1.9c0.2,0.4,0.9,0.1,1.2,0.3
		c0.2,0.1,0.4,0.2,0.5,0.5c0.1,0.3,0,0.6-0.1,0.9c-0.4,0.4-0.9,0.3-1.5,0.4l-0.2,0.2c0.1,1.2-0.2,2.2,0,3.4c0,0.2-0.1,0.6,0.2,0.7
		c0.6,0,1.1,0,1.5,0.4c0.2,0.3,0.2,0.6,0.1,1c-0.2,1.2-2.1-0.2-1.9,1.3c0,0.5,0.1,1.3-0.1,1.7c-2.2,0-4.4-0.2-6.5,0
		c-0.4,0.3-0.9,0.5-1.4,0.6c-0.4-0.1-0.8-0.3-1.1-0.6C7.4,16,5.4,16,3.5,16c-0.6-0.5-0.2-1.4-0.4-2.2c-0.3-0.4-0.8-0.1-1.2-0.3
		c-0.3,0-0.4-0.3-0.5-0.5c0-0.4,0-0.8,0.3-1.1c0.3-0.2,0.8-0.2,1.2-0.2l0.2-0.2c-0.1-1.3,0.2-2.6-0.1-4c-0.2-0.3-0.6,0-0.8-0.2
		C1.9,7.1,1.5,7,1.4,6.6C1.3,6.3,1.2,5.9,1.6,5.7C2,5.2,2.8,5.7,3.2,5.3l0.2-1.9C3.7,2.7,4.4,3,5,3c1-0.2,2.2,0,3.2,0
		C9,3.1,9.7,3.2,10.4,3.5"/>
	<path class="st1" d="M30,57.6c0,0,0.1,0,0.1,0C30.1,57.6,30,57.6,30,57.6 M29.5,53.4c0,0,0,0.1,0,0.2
		C29.5,53.5,29.5,53.4,29.5,53.4C29.5,53.4,29.5,53.4,29.5,53.4 M15.1,44.9C15.2,44.9,15.2,44.9,15.1,44.9
		C15.2,44.9,15.2,44.9,15.1,44.9 M23.7,42.3C23.7,42.3,23.7,42.2,23.7,42.3C23.7,42.2,23.7,42.2,23.7,42.3
		C23.7,42.3,23.7,42.3,23.7,42.3 M23.7,42.2C23.7,42.2,23.7,42.2,23.7,42.2C23.7,42.2,23.7,42.2,23.7,42.2L23.7,42.2z M33.3,35.5
		C33.3,35.6,33.3,35.5,33.3,35.5C33.3,35.6,33.3,35.5,33.3,35.5C33.3,35.5,33.3,35.5,33.3,35.5 M25.4,30.2c0.1-0.1,0.1-0.1,0.1-0.2
		c0,0,0,0,0,0C25.5,30.1,25.5,30.1,25.4,30.2 M10.9,29.7c0.1,0,0.1,0,0.2,0C11.1,29.6,11,29.6,10.9,29.7 M14.1,30.3L14.1,30.3
		L14.1,30.3L14.1,30.3z M13.1,24.5c0,0-0.1,0.4-0.1,0.4c0,0.2-0.2,0.4-0.4,0.4l-0.8-0.1c-0.3-0.1-0.6-0.2-0.9-0.1
		c-0.1,0.1-0.3,0.2-0.5,0.4c0.1,0,0.1,0.1,0.1,0.1c0.2,0.1,0.6,0.2,0.7,0.7c0,0.4,0.2,0.7,0.4,0.9l0.1,0.2c0.1,0.1,0.1,0.2,0.1,0.3
		c0,0.1,0,0.1-0.1,0.2l-0.4,0.5c0,0-0.2,0.2-0.2,0.2c0,0-0.2,0.5-0.3,0.7c0.1,0.2,0.2,0.3,0.3,0.3c0.4-0.1,0.7,0,1,0l0.6,0.1
		c0,0,0.1,0,0.1,0l0.2,0c0.2,0,0.6-0.1,0.9,0.1c0,0,0.3,0.5,0.3,0.6c0.1,0.2,0.1,0.3,0.1,0.5c0,0.2,0,0.4-0.1,0.6l-0.1,0.3
		c0,0.1,0,0.2-0.1,0.2c-0.5,0.8-1.3,1.4-2.1,1.8c0.1,0,0.1,0,0.1,0c0,0,0,0,0,0.1c0,0,0,0,0,0c0.1,0.1,0.4,0.1,0.7,0l0.2,0
		c0.4,0,0.7-0.1,1.1-0.3l1.2-0.3c0.2-0.1,0.3,0.1,0.4,0.2c0.2,0.4,0.5,0.8,0.7,0.9c0,0,0,0,0.2-0.2c0.2-0.2,0.6-0.5,1.2-0.3
		c0,0,0.1,0,0.1,0.1c0.4,0.3,0.5,0.7,0.6,1c0.1,0.2,0.1,0.5,0.3,0.6c0.1,0.1,0.1,0.2,0.1,0.2c0,0,0,0.1,0,0.1c0,0.4-0.4,0.6-0.5,0.7
		l-0.1,0c0,0-0.1,0.1-0.1,0.1l-0.9,0.2c-0.3,0-0.6,0.1-0.8,0.2c0,0,0,0.1,0.1,0.1c0.4,0.2,1,0.3,1.6,0.4l0.3,0.1c0,0,0.7,0,0.7,0
		l1.2,0c0.2,0,0.2,0.1,0.3,0.2c0.1,0.1,0,0.3-0.1,0.4l-0.2,0.3c0,0.1-0.1,0.1-0.1,0.1l-1.9,1.3c-0.1,0-1.1,0.4-1.1,0.4l-1.5,0.6
		c0,0-0.1,0-0.1,0c-0.9,0.2-1.5-0.3-1.9-0.6c-0.3-0.3-0.6-0.5-1-0.5c-0.4,0-0.6,0.1-0.8,0.3c-0.1,0.1-0.1,0.2-0.1,0.4
		c0,0.1,0,0.1,0,0.2c0,0,0.1,0,0.1,0c0.2,0.1,0.6,0.2,0.6,0.7c0,0.7-0.3,1.2-0.6,1.7c-0.2,0.4-0.5,0.9-0.5,1.3c0,0,0,0.1,0,0.1
		c0,0.1,0,0.2,0.1,0.2c0,0,0.1,0,0.1,0c0,0,0.1,0,0.1,0c0,0,0.1-0.2,0.1-0.2c0.1-0.2,0.3-0.5,0.7-0.6c0,0,0.1,0,0.1,0
		c0.8,0.1,1.2,0,1.5-0.3c0.1-0.1,0.2-0.1,0.2-0.1c0.2,0,0.5,0,0.7,0.2c0.2,0.2,0.3,0.4,0.3,0.6c0,0,0,0.1,0,0.2
		c0.5-0.1,0.8-0.5,1.2-1.2l0.2-0.3c0.1-0.1,0.2-0.2,0.3-0.2l0.3-0.1c0.4-0.1,0.8-0.3,1.3,0c0.1,0.1,0.2,0.2,0.2,0.3
		c0,0.1,0,0.2,0,0.3c0,0.4-0.2,0.8-0.3,1c0,0-0.1,0.2-0.1,0.4c0.7-0.2,1.3-0.8,1.8-1.5l0.3-0.4c0.1-0.2,0.3-0.7,0.9-0.7
		c0,0,0.1,0,0.1,0c0.3,0.1,0.4,0,0.7-0.5l0.6-0.7c0.1-0.1,0.1-0.1,0.3-0.1h0.2c0.1,0,0.2,0,0.3,0.1c0.1,0.1,0.1,0.1,0.1,0.2
		c0,0,0,0.6,0,0.6s0,0,0,0c0.1,0,0.4-0.2,0.6-0.2c0,0,0.8-0.5,0.8-0.5c0.1-0.1,0.2-0.1,0.4,0l3,0.8c0.6,0.2,0.7,0.6,0.7,1
		c0,0.1,0,0.3,0,0.4c0,0.1,0,0.2,0,0.3c0,0.1,0,0.1,0.1,0.2c0.1,0.1,0.1,0.2,0.1,0.3c0,0.1,0,0.1,0,0.2c-0.1,0.3-0.4,0.6-1.2,0.6
		c0,0-1.5,0.1-1.5,0.1c-1.2,0-2.4,0-3.3,0.9c0,0-0.8,0.8-0.8,0.8c-0.1,0.1-0.2,0.1-0.3,0.1c-0.6,0-1,0.3-1.5,0.6
		c-0.4,0.3-0.9,0.6-1.5,0.7c-0.4,0.2-0.9,0.2-1.3,0.2c-0.4,0-0.6,0-0.7,0.1c0.4,0.5,1.1,0.7,1.8,0.9c0.1,0,0.4,0.1,0.4,0.1
		c0.3,0,0.8,0,1,0.5c0,0,0,0.1,0,0.2c0,0.4,0.1,0.6,0.3,0.6c0,0,0.1,0,0.1,0c0.2-0.1,0.6-0.3,1,0c0.1,0.1,0.7,0.7,0.7,0.7l0.8,0.8
		c0.1,0.1,0.1,0.3,0,0.4c-0.3,0.6-1,0.5-1.5,0.5l-0.3,0c0,0-0.4,0-0.4,0c-0.6,0.1-1.5,0.3-2.1-0.5c0,0,0.1,0.1,0.1,0.1l-0.6-0.5
		c-0.5-0.4-0.9-0.8-1.5-0.8c-0.6,0.2-0.9,0.4-0.9,0.7c0,0,0,0,0,0c0,0,0.1,0.2,0.1,0.2l0.3,0.3c0.1,0.1,0.1,0.2,0.1,0.2
		c0,0,0,0,0,0.1c0,0.1-0.1,0.2-0.2,0.3c-0.5,0.3-1.1,0.8-1.1,1.4c0,0.1,0,0.2,0,0.2c0,0,0,0.1,0,0.1c0.1,0,0.2-0.1,0.2-0.1
		c0.2-0.1,0.6-0.2,1,0c0.1,0.1,0.2,0.2,0.2,0.3l0,0.5c0,0.5,0.1,0.7,0.2,0.9c0.1,0,0.2-0.1,0.2-0.1c0.3-0.2,0.9-0.4,1.5,0
		c0.1,0,0.3,0,0.6-0.2l0.6-0.3c0.1,0,0.1,0,0.1,0c1.1,0,1.5,0.9,1.8,1.5c0,0,0,0,0,0c0,0,0,0,0,0c0.5,0.4,0.9,0.6,1.2,0.5
		c0,0,0-0.1,0-0.1c0-0.1,0-0.2,0-0.4c0-0.1-0.1-0.3-0.1-0.5c0-0.4,0.1-0.8,0.7-1c0.1,0,1-0.1,1-0.1l0.6,0c0,0,0.1,0,0.1,0
		c0.9,0.1,1.6,0.1,2-0.5c0,0,0.7-1.1,0.8-1.3c0-0.1,0.1-0.7,0.1-0.7c0-0.2,0.1-0.3,0.3-0.3c0.3-0.1,0.7,0,0.9,0.1c0,0,0.1,0,0.2,0.1
		c-0.2-0.5-0.3-1-0.3-1.6c0-0.3,0-0.5,0.1-0.8c0.2-0.8,0.5-1.4,0.9-1.8c0.1-0.1,0.3-0.2,0.5-0.1l0.2,0.1c0.1,0.1,0.2,0.2,0.3,0.3
		l0.2,1c0.1,0.6,0.2,1.2,0.5,1.8c0,0.1,0.1,0.1,0,0.2l-0.4,1.5L31.2,55c-0.3,1.1-1,1.9-2,2.4c0,0,0,0.1,0,0.1c0,0,0.2,0,0.4,0
		c0,0,0.3,0,0.4,0c1.1-0.1,2.2-0.7,2.9-1.5c0.1-0.1,0.3-0.2,0.4-0.1c0.2,0.1,0.4,0,0.7-0.2c0.3-0.2,0.9-0.5,1.5-0.1
		c0.3,0.2,0.6,0.2,1,0.1c0.6,0,1.6-0.1,1.8,1c0,0,0,0.2,0,0.2l0,0.5c0.1,0.5,0.2,1.6-0.9,1.8c-0.1,0-0.1,0-0.2,0L36.2,59
		c-0.9-0.4-1.3-0.5-1.7,0c-0.1,0.1-0.2,0.3-0.2,0.4c0.1,0.3,0.5,0.9,0,1.4c0,0,0.1-0.1,0.1-0.1l-0.1,0.1c-0.3,0.5-0.5,0.8-0.3,1.2
		c0,0,0.1,0.1,0.4,0c0.5-0.2,0.9,0,1.3,0.1l0.5,0.2c0.1,0,0.2,0.1,0.2,0.1l0.2,0.1c0.4,0.3,0.7,0.5,1.1,0.6c0,0,0-0.1,0-0.1l0.2-0.5
		c0.1-0.1,0.7-0.4,0.7-0.4c0.5-0.2,0.5-0.2,0.5-0.4c0.1-0.7,0.6-1.4,1.3-1.8c0.1,0,0.2-0.1,0.3-0.1c0.2,0,0.7-0.2,1-0.4
		c0,0-0.1-0.1-0.1-0.1l-0.2-0.2c-0.1-0.1-0.1-0.2-0.2-0.2c0-0.1,0-0.2,0-0.3c0-0.5,0.3-0.9,0.5-1.3c0.2-0.3,0.3-0.6,0.3-0.8
		c0-0.1,0-0.2-0.1-0.4c0-0.1-0.1-0.1-0.1-0.1l-0.1-0.7c-0.1-0.5-0.1-0.9-0.4-1.1c0,0-0.8-0.4-0.8-0.4l-0.8-0.4
		c-0.2-0.1-0.2-0.2-0.2-0.4c0-0.4,0.2-0.6,0.7-0.7l0.1,0c0.5-0.2,1,0,1.4,0.2c0.4,0.1,0.5,0.1,0.6,0.1c-0.1-0.3-0.4-0.6-0.6-0.9
		c-0.5-0.3-1.1-0.5-1.7-0.6c-1-0.2-2-0.5-2.6-1.4c-0.1-0.1-0.1-0.2-0.1-0.3c0-0.1,0-0.2,0.1-0.3l0.1-0.1c0.1-0.1,0.3-0.1,0.4-0.1
		c1.2,0.3,2.4,0,3.2-0.7c0.5-0.6,1.1-1.4,2-1.7c0.7-0.5,0.8-1.4,0.8-2.5c0-0.6,0.3-1.1,0.7-1.4c0,0,0.9-0.4,0.9-0.4
		c0.3-0.1,0.4-0.1,0.4-0.2c-0.5-0.2-1.1-0.5-1.6-0.4c-0.1,0-0.2,0-0.3-0.1c-0.3-0.1-0.3-0.3-0.4-0.5c0,0,0-0.1,0-0.1
		c0-0.3,0.2-0.5,0.4-0.6l0.1-0.1c0,0,0.1-0.1,0.1-0.1l0.9-0.5c1.2-0.7,2-1.1,2-2.2c0,0,0,0,0,0c0-0.1,0-0.1,0-0.1
		c-0.1,0.1-0.3,0.1-0.5,0.3L46,37.9c-0.6,0.3-1.3,0.5-2,0.6c-0.7,0.1-1.3,0.3-1.8,0.6c-0.1,0-0.1,0.1-0.2,0.1
		c-0.2,0-0.5-0.1-0.5-0.4c0-0.1,0-0.2,0-0.3c0-0.2,0.1-0.4,0.2-0.5c0.2-0.3,0.5-0.5,0.8-0.6c0.4-0.2,0.6-0.3,0.7-0.6
		c0,0,0.1-0.3,0.1-0.3c0.2-0.5,0.4-1.2,1.1-1.5c0.1,0,0.6-0.3,0.6-0.3c0.1,0,0.2-0.1,0.2-0.1c0,0,0,0-0.1-0.1c-1-0.3-2.1,0.5-2.6,1
		c0,0-0.1,0.1-0.1,0.1L42,35.8c-0.7,0.3-1.4,0.6-1.9,1.1c0,0.1-0.1,0.1-0.2,0.1c-0.2,0.1-0.4,0-0.6-0.1c-0.2-0.1-0.3-0.3-0.3-0.6
		c-0.2-1.6,1.1-2.8,2.2-3.7l0.3-0.2c0,0,0.2-0.1,0.2-0.1l0.6-0.3c0.5-0.3,1.1-0.7,1.9-0.4c0.6,0.3,1.1,0.5,1.6,0.4
		c0.3-0.1,0.6-0.4,0.8-0.8c0.2-0.3,0.5-0.7,0.9-1c0.5-0.2,0.8,0,1.1,0c0.1,0,0.4,0.1,0.4,0.1c0,0,0.1-0.1,0.1-0.1c0,0,0-0.1,0-0.1
		c0-0.3-0.2-0.6-0.5-1l-0.4-0.5c-0.1-0.1-0.1-0.1-0.1-0.2c0-0.1,0-0.1,0-0.2c0.1-0.3,0.2-0.6,0.2-1c0-0.8-0.3-1.5-0.9-2
		c-0.2-0.1-0.6-0.3-1-0.3c0,0.1,0.1,0.2,0.1,0.2l0.4,0.8c0,0.1,0,0.2,0,0.3c0,1.8-1.6,2.6-2.8,3.2l-1.1,0.6
		c-2.5,1.3-5.9,3.3-6.1,6.7c0,1.7,0.8,3.4,2.1,4.7c0,0,0,0.1,0.1,0.1l0.5,0.7c0.5,0.8,1.1,1.7,1.1,2.7c0,0.3,0,0.5-0.1,0.8
		c-0.4,1-1.6,1-2,1c-2.5-0.2-3.9-2.7-4.9-4.5l-0.2-0.3c0,0-0.2-0.4-0.2-0.4c-0.3-0.6-0.6-1.2-0.6-1.9c0-0.1,0-0.3,0.1-0.4
		c0.1-0.1,0.4-0.4,0.9-0.1c0.1,0,0.5,0.8,0.5,0.8c0.1,0.1,0.1,0.2,0.1,0.3c0-0.1,0.1-0.2,0.1-0.4c0-0.4-0.2-0.9-0.4-1.4l-0.1-0.1
		c-0.1-0.2-0.4-0.5-0.7-0.7c-0.4-0.3-0.8-0.7-1-1.2c0,0,0-0.1,0-0.2c0,0,0,0,0-0.1c0-0.6,0.5-0.7,0.7-0.8c0,0,0.1,0,0.1,0
		c-0.2-0.6-0.3-1.3-0.3-2c0-0.3,0-0.7,0.1-1c0,0,0,0,0,0c0,0,0,0,0,0c0,0,0,0,0,0l0.6-0.6c0.2-0.1,0.2-0.1,0.2-0.2
		c-0.2-0.7-0.2-1.5-0.2-2.2c0-0.3,0-0.6,0-0.9c0-0.1,0.2-0.7,0.2-0.7c0.1-0.3,0.2-0.5,0.2-0.7c0-0.1,0-0.1,0-0.2
		c-0.4-0.2-0.5-0.7-0.5-0.9c0,0,0-0.2,0-0.2c0,0,0,0,0,0c0.1,0,0.1,0,0.1,0c-1,0-1.9-0.4-2.7-0.8l-0.9-0.4c-0.2-0.1-0.4,0-0.7,0.2
		l-0.5,0.2c0,0-0.5,0.1-0.5,0.1c-0.5,0.1-1,0.2-1.3,0.5c-0.2,0.2-0.2,0.5-0.2,0.9l0,0.3c0,0,0,0.1,0,0.1c-0.1,0.3-0.3,0.4-0.4,0.4
		c-0.3,0.1-0.6,0-0.7-0.1l-0.1,0c-0.8-0.4-1.1-1.2-0.9-2c0-0.1-0.1-0.3-0.1-0.3c-0.2-0.1-0.6-0.2-0.9-0.1c-0.2,0.1-0.4,0.3-0.6,0.8
		c0,0-0.1,0.1-0.1,0.2c0,0,0,0.1,0,0.1c0,0.3,0.1,0.6,0.2,0.7c0.3,0.3,0.8,0.6,1.4,0.9l1.3,0.8c0.1,0.1,0.1,0.1,0.1,0.2
		c0,0.1,0.1,0.3,0.1,0.4c0,0.5-0.2,0.8-0.5,1.1c0,0,0,0,0,0c0.1,0.1,0.4,0.3,0.4,0.7c0,0,0,0.1,0,0.2c0,0.2-0.2,0.3-0.3,0.3
		c-0.8,0.2-1.5,0-2.1-0.4c0,0-0.4-0.5-0.4-0.5C23.1,30,23,29.9,23,29.9c-0.1,0.1-0.1,0.2-0.2,0.3l-0.2,0.4c0-0.1,0,0.3,0,0.3
		c0,0.3-0.1,0.7-0.4,1C22.1,32,22,32,21.8,32l-0.4,0c-1.6-0.5-3.1-1.3-4.7-2.6c-0.7-0.5-1.2-1.3-1.7-1.9l-0.4-0.5
		c0,0-0.1-0.1-0.1-0.1l-0.1-0.5c-0.3-1-0.5-1.6-1.2-1.8C13.2,24.5,13.1,24.5,13.1,24.5"/>
	<path class="st2" d="M0.5,24.5c0-7,0-14.8,0-23.9h59.9c0,0,0,3.6,0,24.1c0,30.3-30.2,48.1-30.2,48.1S0.5,54.1,0.5,24.5z"/>
	<path d="M42.3,59.4L42.3,59.4C42.3,59.4,42.3,59.4,42.3,59.4L42.3,59.4L42.3,59.4L42.3,59.4L42.3,59.4L42.3,59.4L42.3,59.4
		L42.3,59.4L42.3,59.4L42.3,59.4L42.3,59.4L42.3,59.4c-0.2-0.2-0.4-0.5-0.5-0.6c-0.2-1.1,1.4-1.8,0.6-2.9c-0.2-0.7,0-1.5-0.7-2
		c-0.5-0.4-1.1-0.5-1.6-0.8c0-0.3,0.4-0.2,0.5-0.3c0.9-0.2,1.6,0.8,2.3,0c0.1-0.6-0.5-1.1-0.9-1.5c-1.3-0.9-3.3-0.5-4.2-1.9l0.1-0.1
		c1.3,0.3,2.6,0,3.6-0.8c0.5-0.7,1.1-1.4,2-1.6c0.9-0.7,1-1.8,1-2.9c0-0.4,0.2-0.8,0.5-1.1c0.5-0.4,1.7-0.3,1.5-1.2
		c-0.7-0.4-1.4-0.7-2.2-0.6c-0.4-0.2,0.1-0.5,0.2-0.6c1.3-0.8,3.2-1.3,3.1-3.2c-0.1-0.2-0.1-0.5-0.4-0.5c-0.5,0.1-0.9,0.6-1.4,0.8
		c-1.2,0.7-2.7,0.5-3.8,1.3c-0.2,0-0.2-0.3-0.1-0.4c0.4-0.6,1.3-0.6,1.6-1.4c0.2-0.6,0.4-1.4,1-1.6c0.4-0.3,1-0.3,1.3-0.8
		c0-0.3-0.4-0.4-0.6-0.5c-1.1-0.4-2.2,0.3-3,1.1c-0.8,0.4-1.8,0.7-2.4,1.3c-0.1,0-0.3,0-0.3-0.2c-0.2-1.6,1.3-2.7,2.3-3.6
		c0.7-0.2,1.4-1.1,2.2-0.7c0.6,0.3,1.2,0.6,1.9,0.4c0.9-0.3,1.1-1.3,1.8-1.8c0.6-0.2,1.4,0.7,1.8-0.2c0.2-0.9-0.5-1.4-0.9-2
		c0.5-1.2,0.1-2.6-0.9-3.5c-0.5-0.3-1.1-0.5-1.6-0.3c-0.4,0.5,0.4,0.9,0.4,1.5c0.2,2.2-2.2,2.7-3.7,3.7c-2.7,1.4-6.1,3.5-6.3,7
		c0,2,0.9,3.7,2.2,5.1c0.7,1.2,1.8,2.4,1.4,3.9c-0.3,0.6-1,0.7-1.6,0.7c-2.4-0.2-3.6-2.8-4.6-4.6c-0.3-0.7-0.7-1.4-0.8-2.2
		c0.1-0.1,0.2-0.1,0.4,0C34,40,34,41,34.7,40.9c0.6-0.8,0.2-1.8-0.2-2.6c-0.4-0.7-1.3-1.1-1.7-1.9c0-0.6,0.8-0.2,0.9-0.8
		c-0.3-1-0.4-2.1-0.2-3c0.2-0.4,0.8-0.4,0.8-0.9c-0.3-1-0.3-2-0.2-3c0.1-0.6,0.6-1.3,0.3-2c-0.7-0.2-0.1-1.1-0.8-1.3
		c-1.3,0-2.3-0.7-3.4-1.1c-0.6-0.2-1,0.2-1.5,0.3c-0.7,0.2-1.5,0.2-2,0.7c-0.4,0.4-0.3,0.9-0.3,1.5c-0.1,0.4-0.4,0-0.6,0
		c-0.5-0.3-0.7-0.9-0.6-1.5c0.1-0.3,0-0.5-0.3-0.7c-0.4-0.2-0.9-0.4-1.3-0.2c-0.5,0.2-0.7,0.8-0.9,1.3c0,0.4,0,0.9,0.2,1.2
		c0.8,0.8,1.9,1.1,2.7,1.8c0.2,0.5-0.2,0.9-0.5,1.3c0,0.4,0.6,0.4,0.5,0.8c-0.6,0.2-1.3,0-1.7-0.4c-0.3-0.3-0.4-0.9-0.9-0.9
		c-0.5,0-0.5,0.6-0.7,0.9c-0.2,0.4,0,0.9-0.4,1.2l-0.4,0c-1.6-0.5-3.1-1.4-4.5-2.5c-0.8-0.6-1.4-1.6-2-2.4c-0.3-1-0.5-2.4-1.7-2.7
		c-0.3,0-0.6,0.1-0.7,0.4l-0.1,0.4c-0.6,0-1.3-0.4-1.9-0.2c-0.3,0.2-0.6,0.4-0.8,0.7c0,0.7,0.8,0.4,0.9,1c0,0.5,0.4,0.9,0.6,1.3
		c-0.2,0.3-0.5,0.4-0.6,0.7l-0.4,1c0.2,0.3,0.4,0.7,0.7,0.7c0.5-0.2,1,0.2,1.6,0.1c0.4,0,0.9-0.3,1,0.3c0.2,0.5,0,0.9,0,1.3
		c-0.5,0.7-1.2,1.3-1.9,1.6c-0.2,0.2-0.2,0.5-0.2,0.7c0.3,0.4,0.9,0.2,1.3,0.2c0.8,0,1.5-0.5,2.2-0.6c0.2,0.4,0.5,0.9,0.9,1.1
		c0.6,0.2,0.8-0.7,1.4-0.5c0.5,0.4,0.4,1.1,0.8,1.6c0,0.3-0.2,0.3-0.4,0.4c-0.7,0.2-1.6,0-2.1,0.5c-0.1,0.3,0.2,0.6,0.4,0.7
		c0.6,0.3,1.3,0.4,2,0.5c0.6,0.1,1.3-0.2,1.9,0l-0.2,0.3L18,39.7c-0.9,0.4-1.8,0.5-2.6,1c-1.2,0.3-1.7-1.2-2.8-1.1
		c-0.5,0-0.8,0.2-1.1,0.4c-0.3,0.3-0.3,0.7-0.2,1.1c0.2,0.4,0.7,0.2,0.7,0.6c0,1.1-1,1.9-1.1,3c0,0.3,0,0.6,0.4,0.7
		c0.2,0.1,0.5,0,0.7-0.1c0.2-0.2,0.2-0.6,0.6-0.7c0.7,0.1,1.4,0.1,1.8-0.4c0.2,0,0.5,0.2,0.5,0.4c0,0.3,0,0.6,0.3,0.7
		c1,0,1.5-1,1.9-1.7c0.4-0.1,0.9-0.4,1.3-0.1c0.2,0.7-0.4,1.1-0.5,1.8c0,0.2,0.2,0.3,0.4,0.4c1.2-0.2,1.8-1.3,2.5-2.1
		c0.1-0.2,0.2-0.5,0.6-0.5c0.9,0.3,1.1-0.8,1.7-1.2h0.2c0.1,0.3-0.1,0.5,0,0.7c0.4,0.4,0.8,0,1.2-0.1l0.8-0.5c1,0.3,2,0.5,3,0.8
		c0.8,0.3,0,1.2,0.5,1.7c-0.1,0.3-0.5,0.4-0.8,0.4c-1.7,0.2-3.7-0.2-5.1,1.1l-0.8,0.8c-1.3,0-2,1.1-3.1,1.3c-0.8,0.6-2-0.2-2.5,0.7
		c0.4,0.8,1.4,1.1,2.2,1.3c0.4,0.2,0.9,0,1.1,0.4c0,0.4,0.1,0.9,0.6,1c0.4,0.1,0.5-0.4,0.9-0.1c0.4,0.6,1.1,0.9,1.4,1.4
		c-0.3,0.5-0.9,0.2-1.4,0.2l-0.1,0c-0.7,0.1-1.6,0.4-2.2-0.2c-0.7-0.6-1.3-1.4-2.4-1.4c-0.6,0.2-1.2,0.4-1.3,1.1
		c-0.1,0.4,0.3,0.5,0.5,0.8c-0.7,0.5-1.5,1.2-1.2,2.2c0.1,0.2,0.2,0.4,0.4,0.4c0.4,0,0.6-0.3,1-0.1c0.1,0.6-0.1,1.5,0.6,1.8
		c0.5-0.1,0.9-0.7,1.5-0.2c0.6,0.3,1.1-0.3,1.6-0.4c0.8,0,1.1,0.8,1.4,1.4c0.5,0.4,1.2,1,1.9,0.6c0.5-0.7-0.4-1.5,0.5-2
		c0.5-0.2,1,0,1.6-0.1c0.9,0.1,1.9,0.2,2.4-0.8l0.8-1.3l0.2-0.8c0.5-0.2,1.3,0.7,1.5-0.1c-0.3-0.8-0.4-1.6-0.2-2.4
		c0.2-0.6,0.4-1.1,0.8-1.5l0.2,0.1c0.2,1,0.3,2,0.7,2.9c-0.1,0.9-0.5,1.7-0.7,2.6c-0.2,0.9-0.9,1.7-1.8,2.1
		c-0.2,0.2-0.4,0.4-0.2,0.7C29,58.2,29.6,58,30,58c1.2-0.2,2.4-0.7,3.2-1.6c0.9,0.2,1.3-0.8,2.1-0.4c0.8,0.6,2.3-0.5,2.6,0.9
		c-0.1,0.6,0.5,1.8-0.5,2c-1-0.2-2.2-1.5-3.2-0.3c-0.2,0.2-0.4,0.5-0.2,0.9c0.2,0.3,0.4,0.6,0.1,0.9c-0.3,0.5-0.7,1.1-0.4,1.6
		c0.2,0.4,0.6,0.4,0.9,0.3c0.6-0.2,1.1,0.3,1.7,0.3c0.5,0.4,1,0.9,1.7,0.8c0.3-0.2,0.2-0.5,0.4-0.7c0.4-0.4,1.3-0.3,1.3-1.1
		c0.1-0.6,0.6-1.1,1.1-1.4C40.9,60.2,42,59.9,42.3,59.4"/>
	<path class="st3" d="M42.3,59.4L42.3,59.4C42.3,59.4,42.3,59.4,42.3,59.4L42.3,59.4L42.3,59.4L42.3,59.4L42.3,59.4L42.3,59.4
		L42.3,59.4L42.3,59.4L42.3,59.4L42.3,59.4L42.3,59.4L42.3,59.4c-0.2-0.2-0.4-0.5-0.5-0.6c-0.2-1.1,1.4-1.8,0.6-2.9
		c-0.2-0.7,0-1.5-0.7-2c-0.5-0.4-1.1-0.5-1.6-0.8c0-0.3,0.4-0.2,0.5-0.3c0.9-0.2,1.6,0.8,2.3,0c0.1-0.6-0.5-1.1-0.9-1.5
		c-1.3-0.9-3.3-0.5-4.2-1.9l0.1-0.1c1.3,0.3,2.6,0,3.6-0.8c0.5-0.7,1.1-1.4,2-1.6c0.9-0.7,1-1.8,1-2.9c0-0.4,0.2-0.8,0.5-1.1
		c0.5-0.4,1.7-0.3,1.5-1.2c-0.7-0.4-1.4-0.7-2.2-0.6c-0.4-0.2,0.1-0.5,0.2-0.6c1.3-0.8,3.2-1.3,3.1-3.2c-0.1-0.2-0.1-0.5-0.4-0.5
		c-0.5,0.1-0.9,0.6-1.4,0.8c-1.2,0.7-2.7,0.5-3.8,1.3c-0.2,0-0.2-0.3-0.1-0.4c0.4-0.6,1.3-0.6,1.6-1.4c0.2-0.6,0.4-1.4,1-1.6
		c0.4-0.3,1-0.3,1.3-0.8c0-0.3-0.4-0.4-0.6-0.5c-1.1-0.4-2.2,0.3-3,1.1c-0.8,0.4-1.8,0.7-2.4,1.3c-0.1,0-0.3,0-0.3-0.2
		c-0.2-1.6,1.3-2.7,2.3-3.6c0.7-0.2,1.4-1.1,2.2-0.7c0.6,0.3,1.2,0.6,1.9,0.4c0.9-0.3,1.1-1.3,1.8-1.8c0.6-0.2,1.4,0.7,1.8-0.2
		c0.2-0.9-0.5-1.4-0.9-2c0.5-1.2,0.1-2.6-0.9-3.5c-0.5-0.3-1.1-0.5-1.6-0.3c-0.4,0.5,0.4,0.9,0.4,1.5c0.2,2.2-2.2,2.7-3.7,3.7
		c-2.7,1.4-6.1,3.5-6.3,7c0,2,0.9,3.7,2.2,5.1c0.7,1.2,1.8,2.4,1.4,3.9c-0.3,0.6-1,0.7-1.6,0.7c-2.4-0.2-3.6-2.8-4.6-4.6
		c-0.3-0.7-0.7-1.4-0.8-2.2c0.1-0.1,0.2-0.1,0.4,0C34,40,34,41,34.7,40.9c0.6-0.8,0.2-1.8-0.2-2.6c-0.4-0.7-1.3-1.1-1.7-1.9
		c0-0.6,0.8-0.2,0.9-0.8c-0.3-1-0.4-2.1-0.2-3c0.2-0.4,0.8-0.4,0.8-0.9c-0.3-1-0.3-2-0.2-3c0.1-0.6,0.6-1.3,0.3-2
		c-0.7-0.2-0.1-1.1-0.8-1.3c-1.3,0-2.3-0.7-3.4-1.1c-0.6-0.2-1,0.2-1.5,0.3c-0.7,0.2-1.5,0.2-2,0.7c-0.4,0.4-0.3,0.9-0.3,1.5
		c-0.1,0.4-0.4,0-0.6,0c-0.5-0.3-0.7-0.9-0.6-1.5c0.1-0.3,0-0.5-0.3-0.7c-0.4-0.2-0.9-0.4-1.3-0.2c-0.5,0.2-0.7,0.8-0.9,1.3
		c0,0.4,0,0.9,0.2,1.2c0.8,0.8,1.9,1.1,2.7,1.8c0.2,0.5-0.2,0.9-0.5,1.3c0,0.4,0.6,0.4,0.5,0.8c-0.6,0.2-1.3,0-1.7-0.4
		c-0.3-0.3-0.4-0.9-0.9-0.9c-0.5,0-0.5,0.6-0.7,0.9c-0.2,0.4,0,0.9-0.4,1.2l-0.4,0c-1.6-0.5-3.1-1.4-4.5-2.5c-0.8-0.6-1.4-1.6-2-2.4
		c-0.3-1-0.5-2.4-1.7-2.7c-0.3,0-0.6,0.1-0.7,0.4l-0.1,0.4c-0.6,0-1.3-0.4-1.9-0.2c-0.3,0.2-0.6,0.4-0.8,0.7c0,0.7,0.8,0.4,0.9,1
		c0,0.5,0.4,0.9,0.6,1.3c-0.2,0.3-0.5,0.4-0.6,0.7l-0.4,1c0.2,0.3,0.4,0.7,0.7,0.7c0.5-0.2,1,0.2,1.6,0.1c0.4,0,0.9-0.3,1,0.3
		c0.2,0.5,0,0.9,0,1.3c-0.5,0.7-1.2,1.3-1.9,1.6c-0.2,0.2-0.2,0.5-0.2,0.7c0.3,0.4,0.9,0.2,1.3,0.2c0.8,0,1.5-0.5,2.2-0.6
		c0.2,0.4,0.5,0.9,0.9,1.1c0.6,0.2,0.8-0.7,1.4-0.5c0.5,0.4,0.4,1.1,0.8,1.6c0,0.3-0.2,0.3-0.4,0.4c-0.7,0.2-1.6,0-2.1,0.5
		c-0.1,0.3,0.2,0.6,0.4,0.7c0.6,0.3,1.3,0.4,2,0.5c0.6,0.1,1.3-0.2,1.9,0l-0.2,0.3L18,39.7c-0.9,0.4-1.8,0.5-2.6,1
		c-1.2,0.3-1.7-1.2-2.8-1.1c-0.5,0-0.8,0.2-1.1,0.4c-0.3,0.3-0.3,0.7-0.2,1.1c0.2,0.4,0.7,0.2,0.7,0.6c0,1.1-1,1.9-1.1,3
		c0,0.3,0,0.6,0.4,0.7c0.2,0.1,0.5,0,0.7-0.1c0.2-0.2,0.2-0.6,0.6-0.7c0.7,0.1,1.4,0.1,1.8-0.4c0.2,0,0.5,0.2,0.5,0.4
		c0,0.3,0,0.6,0.3,0.7c1,0,1.5-1,1.9-1.7c0.4-0.1,0.9-0.4,1.3-0.1c0.2,0.7-0.4,1.1-0.5,1.8c0,0.2,0.2,0.3,0.4,0.4
		c1.2-0.2,1.8-1.3,2.5-2.1c0.1-0.2,0.2-0.5,0.6-0.5c0.9,0.3,1.1-0.8,1.7-1.2h0.2c0.1,0.3-0.1,0.5,0,0.7c0.4,0.4,0.8,0,1.2-0.1
		l0.8-0.5c1,0.3,2,0.5,3,0.8c0.8,0.3,0,1.2,0.5,1.7c-0.1,0.3-0.5,0.4-0.8,0.4c-1.7,0.2-3.7-0.2-5.1,1.1l-0.8,0.8
		c-1.3,0-2,1.1-3.1,1.3c-0.8,0.6-2-0.2-2.5,0.7c0.4,0.8,1.4,1.1,2.2,1.3c0.4,0.2,0.9,0,1.1,0.4c0,0.4,0.1,0.9,0.6,1
		c0.4,0.1,0.5-0.4,0.9-0.1c0.4,0.6,1.1,0.9,1.4,1.4c-0.3,0.5-0.9,0.2-1.4,0.2l-0.1,0c-0.7,0.1-1.6,0.4-2.2-0.2
		c-0.7-0.6-1.3-1.4-2.4-1.4c-0.6,0.2-1.2,0.4-1.3,1.1c-0.1,0.4,0.3,0.5,0.5,0.8c-0.7,0.5-1.5,1.2-1.2,2.2c0.1,0.2,0.2,0.4,0.4,0.4
		c0.4,0,0.6-0.3,1-0.1c0.1,0.6-0.1,1.5,0.6,1.8c0.5-0.1,0.9-0.7,1.5-0.2c0.6,0.3,1.1-0.3,1.6-0.4c0.8,0,1.1,0.8,1.4,1.4
		c0.5,0.4,1.2,1,1.9,0.6c0.5-0.7-0.4-1.5,0.5-2c0.5-0.2,1,0,1.6-0.1c0.9,0.1,1.9,0.2,2.4-0.8l0.8-1.3l0.2-0.8
		c0.5-0.2,1.3,0.7,1.5-0.1c-0.3-0.8-0.4-1.6-0.2-2.4c0.2-0.6,0.4-1.1,0.8-1.5l0.2,0.1c0.2,1,0.3,2,0.7,2.9c-0.1,0.9-0.5,1.7-0.7,2.6
		c-0.2,0.9-0.9,1.7-1.8,2.1c-0.2,0.2-0.4,0.4-0.2,0.7C29,58.2,29.6,58,30,58c1.2-0.2,2.4-0.7,3.2-1.6c0.9,0.2,1.3-0.8,2.1-0.4
		c0.8,0.6,2.3-0.5,2.6,0.9c-0.1,0.6,0.5,1.8-0.5,2c-1-0.2-2.2-1.5-3.2-0.3c-0.2,0.2-0.4,0.5-0.2,0.9c0.2,0.3,0.4,0.6,0.1,0.9
		c-0.3,0.5-0.7,1.1-0.4,1.6c0.2,0.4,0.6,0.4,0.9,0.3c0.6-0.2,1.1,0.3,1.7,0.3c0.5,0.4,1,0.9,1.7,0.8c0.3-0.2,0.2-0.5,0.4-0.7
		c0.4-0.4,1.3-0.3,1.3-1.1c0.1-0.6,0.6-1.1,1.1-1.4C40.9,60.2,42,59.9,42.3,59.4z"/>
	<path class="st1" d="M24.4,25.1c-0.1,0.5-0.1,1,0.2,1.4c0.8,0.9,2.1,1.2,2.6,2.2l-0.3,0c-1-0.6-1.9-1.4-2.9-1.8
		c-0.4-0.3-0.7-0.7-0.6-1.2c0.1-0.4,0.2-0.7,0.6-0.8C24.2,24.8,24.4,24.9,24.4,25.1"/>
	<path class="st1" d="M32.8,26c0.2,0.2,0,0.7,0.5,0.8c0.1,0,0.2,0.1,0.2,0.2c0,0.4-0.1,0.8-0.2,1.2c-0.1,0.3-0.5,0.4-0.5,0.9
		c0,0.2,0.4,0.4,0.4,0.6l0,1.6c-1,0.3-0.5,1.5-0.6,2.2c-0.1,0.5,0,1,0,1.5c-0.2,0.1-0.7,0.1-0.8,0.4c0,0.6,0.3,1.1,0.5,1.5
		c0.4,0.5,1.1,0.6,1.1,1.3c-0.5,0-1-0.3-1.4-0.5c-0.7-0.4-1.3-1.2-1.7-1.9c-0.1-0.1-0.3-0.1-0.4,0c-0.1,0.5-0.1,1.1-0.5,1.5
		c-0.5-0.3-0.5-1.6-1.3-1.2c-0.3,1.7-1.4,3-2.4,4.4c-0.2,0.1-0.3,0.4-0.6,0.4c0.5-1.3,0.9-2.9,0.4-4.3c-0.1-0.3-0.4-0.2-0.6-0.1
		c-0.2,0.2-0.4,0.5-0.7,0.4c-0.3-0.4,0.3-1.1-0.4-1.4c-0.5,0.1-0.9,0.6-1.3,0.8c-1.2,0.7-2.6,1-4,1c-0.3,0-0.5-0.1-0.7-0.2
		c0.4-0.4,0.9-0.4,1.3-0.7c1.6-1,2.7-2.8,4.1-4.1c-0.1-0.6-0.6-1.3-0.1-1.8c0.4,0,0.6,0.5,0.9,0.6c0.6,0.3,1.3,0.5,2,0.2
		c0.5-0.1,0.9-0.6,1-1.1c0-0.2-0.1-0.4-0.3-0.4c-0.2,0-0.4,0-0.4-0.2c0-0.3,0.2-0.5,0.4-0.5c0.7,0,1.3,1.4,1.8,0.3
		c0.3-0.9-0.6-1.6-1.3-2.2c-0.2-0.2-0.3-0.4-0.2-0.7c0.5-0.3-0.1-0.7,0.3-1.1c0.7-0.5,1.7-0.2,2.4-0.7C30.8,24.8,31.7,25.7,32.8,26"
		/>
	<path class="st1" d="M14.1,25.7c0,0.2,0.1,0.4,0,0.5c-0.2,0.2-0.4,0-0.5-0.1c-0.2-0.2-0.4-0.5-0.3-0.7
		C13.4,24.6,14.1,25.4,14.1,25.7"/>
	<path class="st1" d="M13.6,26.8c1.1,0.5,1.8,1.6,2.6,2.5c1.7,1.4,3.5,2.6,5.5,3.2c0.1,0.3-0.2,0.6-0.4,0.8
		c-0.7,0.7-1.2,1.5-1.9,2.2c-0.2,0-0.3,0-0.4,0c-0.7-0.7-0.6-2-1.8-2.1c-0.4,0-0.7,0.5-1.1,0.2c-0.4-0.3,0.1-1-0.5-1.2
		c-0.7,0.3-1.2,1-2,0.9c0.5-0.9,1.4-1.8,0.9-2.9c-0.1-0.5-0.4-1.1-0.9-1.3c-0.5,0-0.7,0.5-1.2,0.3c-0.2-0.4-1.1-0.2-0.7-0.8
		c0.3-0.5,1.5-0.5,1-1.3c-0.3-0.4-1.1-0.2-1.1-0.8c0.1-0.4-0.2-0.8,0-1.1C12.4,25.3,13,26.3,13.6,26.8"/>
	<path class="st1" d="M48,27.3c0.1,0.6-0.5,1-0.3,1.6c0.2,0.3,0.7,0.4,0.6,0.7c-1.5,0-1.8,2-3.3,2c-0.6-0.1-1.1-0.8-1.8-0.5
		c-1.9,0.9-4,2.2-4.5,4.5c-0.2,0.9-0.2,1.8,0.5,2.5c0.2,0.1,0.4,0.1,0.5,0c0.4-0.7,0.7-1.6,1.6-1.8c0.6-0.2,1.1-0.4,1.6-0.7
		c0.1,0,0.2-0.1,0.2,0.1c-0.2,0.7-0.5,1.5-1.3,1.7c-0.6,0.5-1.1,1-1.1,1.7c0,0.4-0.1,0.8,0.2,1.1c0.3,0.2,0.6-0.1,0.8-0.2
		c1-1.3,2.5-1.4,4.1-1.5c0.1,0.1-0.1,0.4-0.3,0.4c-1.3,0.4-2.5,1.5-2.9,2.8c0,0.2,0.2,0.4,0.3,0.4c0.6-0.1,1.1-0.5,1.8-0.4
		c0.2,0.4-0.5,0.4-0.7,0.8c-1.2,1.1,0,3.4-2,3.8c-0.6,0.2-0.5,0.9-0.9,1.2c-0.7,0.9-1.8,1.1-2.9,1c-0.8,0.1-1.5-1.1-2.1-0.3
		c0.1,0.8,0.7,1.2,1.1,1.9c1,0.9,2.4,1,3.6,1.4c0.2,0,0.3,0.2,0.4,0.3c0,0.3-0.4,0.2-0.6,0.2c-0.8,0.1-1.7,0.2-2.5-0.1
		c-0.1,0-0.2,0.1-0.3,0.2c0.1,0.9,1.1,1.2,1.7,1.6c0.6,0.3,1.4,0.2,1.6,0.9v0.9c0.3,0.4,0.4,1,0.3,1.5c-0.5,0.6-0.9,1.4-0.5,2.3
		c-0.2,0.2-0.6,0-0.8,0.2c-0.3,0.6-1,0.7-1.2,1.3c0,0.5-0.3,0.9-0.8,1c-0.4,0-0.7,0.2-1,0.1c-0.2-0.3,0.1-0.7-0.3-0.9
		c-0.5-0.1-0.7,0.7-1.3,0.4c-0.3-0.2-0.5-0.3-0.7-0.5c0-0.4,0.3-0.5,0.5-0.6c1.3-0.2,3-0.4,3.4-1.8c0.1-0.7-0.2-1.2-0.1-1.8
		c-0.2-0.7-0.9-1.2-1.7-1.3c-0.7-0.2-1.5,0.1-2-0.4c-0.2-0.2-0.4-0.3-0.7-0.2c-0.2,0-0.3,0.3-0.5,0.2c-0.2-0.2-0.5-0.5-0.7-0.2
		c-0.5,0.9-1.2,2-2.3,2.2c-0.2-0.3,0.2-0.6,0.3-0.9c0.4-0.7,0.6-1.6,0.8-2.4c0.3-0.4,0.7-1,0.4-1.6c-0.5-1.3-1-2.8-0.6-4.3
		c0.3-1.8-0.2-3.5-1.5-4.7c-0.7-0.4-1.4-1.2-2.3-1.3c-0.6-0.2-1.5,0-1.8-0.5c0.1-0.6,0.7-1,1-1.5l1-1.6c0.4-0.1,0.3,0.5,0.7,0.5
		c0.8,0,0.8-1.4,1.6-0.9c0.4,0.5,1,0.7,1.4,1.2c0.5,2.2,1.4,4.4,2.9,6.2c1.2,1.5,3,2.7,4.9,2.1c0.5-0.4,1.2-0.9,1.3-1.6
		c0.5-3.6-4-5.3-3.7-8.9c0.3-3.3,3.7-5.1,6.4-6.4c1.5-0.8,3.4-1.8,3.5-3.8c0-0.2,0-0.3,0.1-0.5C48,26.1,48,26.8,48,27.3"/>
	<path class="st1" d="M23.7,37.9c0.4,0.1,0.9-0.5,1.1,0.1c-0.1,0.8-0.1,1.8-0.5,2.5c-0.4,0.4-1,0.1-1.4,0.3
		c-0.6,0.2-0.7,1.6-1.5,0.7c-0.3-0.1-0.5,0.2-0.7,0.4c-0.3,0.7-0.6,1.5-1.2,2.1c-0.1,0.1-0.3,0.2-0.4,0c-0.1-0.5,0.3-1.4-0.4-1.6
		c-0.3,0-0.6,0.2-0.9,0.3c-0.6,0-1.4,0-1.7,0.5c-0.1,0.3-0.1,0.7-0.5,0.7c-0.4-0.2-0.8-0.3-1-0.7c-0.2-0.1-0.4-0.3-0.6-0.1
		c-0.3,0.3-0.4,0.9-0.9,0.9c-0.4,0-0.7-0.1-1.1-0.3c0.1-0.9,1.1-1,1.7-1.4c1.3-0.3,2.2-1.1,3.4-1.3c2-0.7,3.5-2.2,5.1-3.7
		c0.2-0.1,0.5-0.2,0.7-0.2C23.2,37.4,23.2,37.8,23.7,37.9"/>
	<path class="st1" d="M14.1,41.5c-0.4,0.2-0.9,0.4-1.3,0.2c-0.2-0.2-0.1-0.7-0.2-1c0.1-0.3,0.5-0.2,0.7-0.1
		C13.5,40.9,14.1,41,14.1,41.5"/>
	<path class="st1" d="M30.9,46.6c0,0.6-0.1,1-0.4,1.5c-0.7,0.6-1.3,1.4-1.5,2.4c0,0.7-0.1,1.3-0.1,1.9c-0.2,0.2-0.4-0.1-0.5-0.2
		c-0.3-0.5-0.2-1.5-1.1-1.4c-0.4,0.5-0.9,1.2-0.6,1.8c0.4,0.5,1.1,0.9,0.7,1.6c-0.6,0.3-0.4,1.2-1.2,1.3c-1.2,0.2-2.4-0.4-3.3,0.5
		c-0.3,0.3-0.5,0.7-0.7,1.1c-0.5,0.1-0.4-0.7-0.7-1c-0.2-0.3-0.6-0.1-0.9-0.3c-0.4-0.2-0.9-0.6-1.4-0.3c-0.4,0.2-0.9,0.8-1.5,0.4
		l-0.7-0.2c0-0.2,0.2-0.5,0-0.8l-1.4-0.6c-0.1-0.1,0-0.3,0.1-0.4c1.1-0.7,2.4,0.1,3.8-0.1c0.9-0.3,1.7-0.2,2.6-0.1
		c0.5,0,1.1,0.2,1.4-0.3c0.2-0.3,0.3-0.7,0.1-1c-0.4-0.9-1.6-1.1-1.8-2.1c-0.1-0.2-0.2-0.4-0.4-0.5c-0.3-0.1-0.5,0.2-0.8,0.1
		c-0.1-0.3-0.2-0.6-0.5-0.7c-0.6,0-1.3,0.3-1.8-0.1c0.1-0.3,0.5-0.2,0.7-0.4c0.8-0.2,1.5-0.7,2.3-1.1l1.1-0.2
		c1.1-1.8,3.4-1.7,5.4-1.8l1.9-0.6C30.6,45.2,30.7,46,30.9,46.6"/>
	<path class="st1" d="M18.4,52.9c-0.4,0.2-0.8,0.1-1.2,0c-0.2-0.2-0.3-0.6-0.3-0.9C17.5,51.8,18.1,52.4,18.4,52.9"/>
	<path class="st1" d="M35.9,59.3c0,0.2-0.2,0.2-0.3,0.2c-0.2,0-0.2-0.1-0.2-0.2C35.4,58.9,35.8,59.1,35.9,59.3"/>
	<path d="M30.8,26.6c0.1,0.3-0.1,0.5-0.4,0.6c-0.5,0-0.9,0-1.3-0.4c-0.4-0.3-0.2-0.7-0.1-1.1c0.2-0.2,0.4-0.2,0.6-0.1
		C30.1,25.9,30.5,26.3,30.8,26.6"/>
	<path d="M33,27.3c0,0.3-0.2,0.6-0.4,0.9c-0.2,0.1-0.4,0-0.4-0.2c-0.1-0.4,0.1-0.7,0.3-0.9C32.7,27,33,27.1,33,27.3"/>
	<path d="M30.5,30.1l0,0.7c-0.7,0.7-0.7,1.9-1.7,2.3c-0.3,0-0.5-0.1-0.5-0.4c0-0.4-0.1-1,0-1.4c0.4-0.2,0.5,0.6,0.9,0.2
		c0.2-0.6,0.7-1.1,1-1.6C30.3,29.9,30.4,30,30.5,30.1"/>
</g>
<rect x="0.6" y="17.9" width="59.8" height="4.1"/>
<rect x="0.6" y="17.9" class="st3" width="59.8" height="4.1"/>
<rect x="45.1" y="18.7" class="st1" width="6.8" height="2.6"/>
<rect x="30.3" y="18.7" class="st1" width="6.8" height="2.6"/>
<rect x="15.4" y="18.7" class="st1" width="6.8" height="2.6"/>
<rect x="1.3" y="18.7" class="st1" width="6.2" height="2.6"/>
<g>
	<path d="M57.7,3.2c0.5,0.6,0.2,1.5,0.3,2.2c0.5,0.4,1.7,0,1.8,1c0.1,0.4-0.2,0.7-0.4,0.9c-0.4,0.4-1,0-1.3,0.4
		c-0.1,1.2,0,2.6,0,3.9c0.4,0.2,0.9,0.2,1.3,0.4c0.2,0.2,0.4,0.5,0.4,0.8c0,0.3-0.2,0.6-0.6,0.7c-0.3,0.2-0.9,0-1.1,0.4
		c-0.2,0.6,0,1.4-0.1,2.1c-0.4,0.2-1,0.2-1.5,0.2l-4.8,0c-0.4,0.2-0.9,0.7-1.5,0.4c-1-0.6-2.4-0.4-3.6-0.5l-3.6,0
		c-0.6-0.6-0.2-1.5-0.4-2.2c-0.2-0.4-0.9-0.2-1.3-0.4C41,13.3,41,12.9,41,12.5c0-0.4,0.4-0.6,0.8-0.7c0.3-0.2,0.8,0.1,0.9-0.3
		c0-1.3-0.1-2.5,0-3.7c-0.1-0.7-1.1-0.3-1.5-0.6c-0.4-0.2-0.4-0.7-0.3-1.1c0.3-0.7,1.1-0.5,1.7-0.7l0.1-0.2l0.1-2.1L43,3l5.6,0.1
		c0.6,0,1.2,0.3,1.8,0.5c1.2-0.9,2.9-0.4,4.3-0.7C55.7,3.1,56.7,3,57.7,3.2"/>
	<path class="st4" d="M57.7,3.2c0.5,0.6,0.2,1.5,0.3,2.2c0.5,0.4,1.7,0,1.8,1c0.1,0.4-0.2,0.7-0.4,0.9c-0.4,0.4-1,0-1.3,0.4
		c-0.1,1.2,0,2.6,0,3.9c0.4,0.2,0.9,0.2,1.3,0.4c0.2,0.2,0.4,0.5,0.4,0.8c0,0.3-0.2,0.6-0.6,0.7c-0.3,0.2-0.9,0-1.1,0.4
		c-0.2,0.6,0,1.4-0.1,2.1c-0.4,0.2-1,0.2-1.5,0.2l-4.8,0c-0.4,0.2-0.9,0.7-1.5,0.4c-1-0.6-2.4-0.4-3.6-0.5l-3.6,0
		c-0.6-0.6-0.2-1.5-0.4-2.2c-0.2-0.4-0.9-0.2-1.3-0.4C41,13.3,41,12.9,41,12.5c0-0.4,0.4-0.6,0.8-0.7c0.3-0.2,0.8,0.1,0.9-0.3
		c0-1.3-0.1-2.5,0-3.7c-0.1-0.7-1.1-0.3-1.5-0.6c-0.4-0.2-0.4-0.7-0.3-1.1c0.3-0.7,1.1-0.5,1.7-0.7l0.1-0.2l0.1-2.1L43,3l5.6,0.1
		c0.6,0,1.2,0.3,1.8,0.5c1.2-0.9,2.9-0.4,4.3-0.7C55.7,3.1,56.7,3,57.7,3.2z"/>
	<path d="M37.8,3c0.2,0,0.5,0.2,0.7,0.3c0.2,0.8,0,1.4,0.2,2.1c0.5,0.2,1.3,0,1.6,0.7c0.1,0.3,0.1,0.8-0.1,1c-0.4,0.5-1.3,0-1.6,0.6
		c-0.1,1.5-0.1,2.5,0,3.9c0.4,0.4,1.1,0.1,1.5,0.6c0.2,0.2,0.3,0.5,0.2,0.9c-0.3,0.5-1,0.5-1.6,0.6c-0.2,0.2,0,0.6-0.1,0.9
		c-0.2,0.5,0.3,1.2-0.3,1.5c-1.7,0.2-3.2-0.1-4.9,0l-1.6,0c-0.4,0.3-1,0.7-1.5,0.4l-1-0.4c-1.2,0-2.4,0-3.6,0
		c-0.8,0-1.9,0.3-2.5-0.4c0-0.6,0.1-1.3,0-1.9c-0.6-0.2-1.6,0.1-1.9-0.7c-0.1-0.2,0-0.6,0.1-0.8c0.4-0.6,1.5-0.1,1.9-0.6l0-1.8
		c0.1-0.9,0-1.5,0-2.4c-0.6-0.2-1.7,0.1-1.8-0.9c-0.1-0.5,0.2-0.9,0.6-1c0.4-0.1,1,0.1,1.2-0.3l0.1-1.9c0.5-0.8,1.7-0.3,2.4-0.4
		l3.7,0c0.6,0.1,1.1,0.6,1.7,0.3C33,2.5,35.5,3.3,37.8,3"/>
	<path class="st4" d="M37.8,3c0.2,0,0.5,0.2,0.7,0.3c0.2,0.8,0,1.4,0.2,2.1c0.5,0.2,1.3,0,1.6,0.7c0.1,0.3,0.1,0.8-0.1,1
		c-0.4,0.5-1.3,0-1.6,0.6c-0.1,1.5-0.1,2.5,0,3.9c0.4,0.4,1.1,0.1,1.5,0.6c0.2,0.2,0.3,0.5,0.2,0.9c-0.3,0.5-1,0.5-1.6,0.6
		c-0.2,0.2,0,0.6-0.1,0.9c-0.2,0.5,0.3,1.2-0.3,1.5c-1.7,0.2-3.2-0.1-4.9,0l-1.6,0c-0.4,0.3-1,0.7-1.5,0.4l-1-0.4
		c-1.2,0-2.4,0-3.6,0c-0.8,0-1.9,0.3-2.5-0.4c0-0.6,0.1-1.3,0-1.9c-0.6-0.2-1.6,0.1-1.9-0.7c-0.1-0.2,0-0.6,0.1-0.8
		c0.4-0.6,1.5-0.1,1.9-0.6l0-1.8c0.1-0.9,0-1.5,0-2.4c-0.6-0.2-1.7,0.1-1.8-0.9c-0.1-0.5,0.2-0.9,0.6-1c0.4-0.1,1,0.1,1.2-0.3
		l0.1-1.9c0.5-0.8,1.7-0.3,2.4-0.4l3.7,0c0.6,0.1,1.1,0.6,1.7,0.3C33,2.5,35.5,3.3,37.8,3z"/>
	<path class="st4" d="M10.4,3.5c2-0.9,4.2-0.2,6.4-0.4c0.6,0.1,1.4-0.3,1.8,0.3c0,0.6,0,1.3,0,1.9c0.2,0.4,0.9,0.1,1.2,0.3
		c0.2,0.1,0.4,0.2,0.5,0.5c0.1,0.3,0,0.6-0.1,0.9c-0.4,0.4-0.9,0.3-1.5,0.4l-0.2,0.2c0.1,1.2-0.2,2.2,0,3.4c0,0.2-0.1,0.6,0.2,0.7
		c0.6,0,1.1,0,1.5,0.4c0.2,0.3,0.2,0.6,0.1,1c-0.2,1.2-2.1-0.2-1.9,1.3c0,0.5,0.1,1.3-0.1,1.7c-2.2,0-4.4-0.2-6.5,0
		c-0.4,0.3-0.9,0.5-1.4,0.6c-0.4-0.1-0.8-0.3-1.1-0.6C7.4,16,5.4,16,3.5,16c-0.6-0.5-0.2-1.4-0.4-2.2c-0.3-0.4-0.8-0.1-1.2-0.3
		c-0.3,0-0.4-0.3-0.5-0.5c0-0.4,0-0.8,0.3-1.1c0.3-0.2,0.8-0.2,1.2-0.2l0.2-0.2c-0.1-1.3,0.2-2.6-0.1-4c-0.2-0.3-0.6,0-0.8-0.2
		C1.9,7.1,1.5,7,1.4,6.6C1.3,6.3,1.2,5.9,1.6,5.7C2,5.2,2.8,5.7,3.2,5.3l0.2-1.9C3.7,2.7,4.4,3,5,3c1-0.2,2.2,0,3.2,0
		C9,3.1,9.7,3.2,10.4,3.5z"/>
	<path class="st1" d="M10.1,4l0.2,0.4c0.1,2.7,0.1,5.5,0.1,8.3l-0.1,1.1c-0.7,0-1.4-0.3-2.2-0.2c-0.8-0.1-1.6,0.1-2.3-0.1
		c-0.4-0.9-0.1-1.9-0.2-2.9c0-2,0.1-4.5,0.1-6.7c0-0.2,0.2-0.2,0.3-0.3C7.4,3.6,8.9,3.2,10.1,4"/>
	<path class="st1" d="M4.7,3.7C4.3,4,3.8,4.5,4,5c0.2,3.4,0,6.5,0.2,9.7L4.4,15c1.6,0,3.3-0.2,4.9,0.1c0.1,0,0.1,0.2,0,0.2
		c-0.4,0.2-0.9,0.1-1.3,0.1l-4.1-0.1c-0.3-0.2-0.2-0.8-0.2-1.1c0-0.4,0.1-0.9-0.3-1.1c-0.6-0.1-1.1,0-1.5-0.4
		c0.3-0.8,1.6-0.2,1.8-1.1c0.1-1.5-0.1-3,0-4.4C3.5,6.4,2.6,6.7,2.1,6.5C2,6.4,1.8,6.3,1.9,6.2c0.5-0.5,1.5,0.1,1.8-0.6
		c0.2-0.6,0-1.3,0.1-1.9C4,3.5,4.4,3.5,4.7,3.6V3.7z"/>
	<path class="st1" d="M16.1,3.8c0,3.3,0,6.4,0,9.6c-1.6,0.2-3.4-0.1-5.1,0.3c-0.4-0.3-0.1-0.9-0.2-1.3c-0.1-1.1,0-2.2,0-3.3
		c0-1.6-0.1-3.4,0-4.9c0.2-0.5,0.8-0.6,1.3-0.6l3.8,0L16.1,3.8z"/>
	<path class="st1" d="M18,3.7c0.1,0.6-0.2,1.5,0.2,2.2c0.4,0.2,1,0.1,1.4,0.2c0.2,0.2,0.1,0.4,0,0.6c-0.4,0.4-1.4-0.1-1.6,0.6
		c0,1.6-0.1,3.1,0,4.7l0.2,0.2c0.5,0.1,1.2-0.1,1.5,0.3c0,0.2,0,0.5-0.2,0.6c-0.5,0.1-1.3-0.2-1.6,0.4c-0.1,0.6,0.1,1.3-0.1,1.9
		l-0.3,0.1L12,15.5c-0.1-0.1,0-0.2,0-0.2l0.6-0.2l4.6,0c0.5-0.1,0.5-0.7,0.5-1.1c0-2.3,0-4.3,0-6.5c0-1.1,0.2-2.1-0.1-3.2
		c0-0.2-0.4-0.4-0.4-0.7C17.4,3.5,17.8,3.5,18,3.7"/>
	<path class="st1" d="M44.1,3.7C44,4,43.6,4.3,43.5,4.6c0,3.3,0,6.9,0.1,10.4l0.3,0.2c1.8,0,3.7-0.4,5.2,0.4c0.1,0,0,0,0,0.1
		c-1.9,0-3.9,0.1-5.8,0l-0.2-0.2c-0.1-0.7,0.1-1.4-0.2-2.1c-0.4-0.4-1.7,0.1-1.4-0.8c0.5-0.4,1.3,0.1,1.5-0.5c0-1.7,0.1-3.2,0-4.8
		C42.7,6.7,42,7,41.5,6.9c-0.2-0.2-0.3-0.4-0.1-0.6c0.5-0.4,2.1,0.1,1.8-1.1c0.2-0.5-0.2-1.5,0.5-1.6C43.8,3.6,44,3.5,44.1,3.7"/>
	<path class="st1" d="M57.4,3.8c0.2,0.8-0.2,1.5,0.3,2.2c0.5,0.1,1.3-0.2,1.5,0.3c0,1-1.4,0.2-1.7,1c0.1,1.5-0.1,2.8,0,4.5
		c-0.2,0.1-0.2,0.3-0.1,0.4c0.4,0.4,1-0.2,1.5,0.2c0.3,0.1,0.1,0.3,0.1,0.5c-0.4,0.5-1.3-0.1-1.5,0.6l-0.1,2l-0.3,0.1l-5.4,0
		c-0.1-0.1,0-0.1,0-0.2l0.6-0.2h4.1c0.2,0,0.5-0.2,0.5-0.5c0-3.2-0.1-6.5-0.1-10l-0.5-1C56.7,3.5,57.2,3.4,57.4,3.8"/>
	<path class="st1" d="M44.7,5v8.7c-0.1,0.2-0.4,0.4-0.5,0.5L44,14.2c0-0.9,0-2,0-2.9v-0.7c0-1.9,0-4,0-6c0.2-0.2,0.3-0.5,0.5-0.6
		C44.7,4.4,44.7,4.7,44.7,5"/>
	<path class="st1" d="M56.6,4.6c-0.1,2.3,0,4.4,0,6.6c0,1,0,1.9,0,2.8c0,0.1,0,0.1-0.1,0.2c-0.7-0.3-0.4-1.1-0.5-1.7
		c0-0.9-0.1-1.8,0.1-2.7l-0.1-0.3l0-5.3C56.1,3.9,56.5,4.4,56.6,4.6"/>
	<path class="st1" d="M17.2,4.5c0,3.3,0,6.5-0.1,9.5c-0.1,0.2-0.2,0-0.4-0.1c-0.2-0.5,0-1.1,0-1.6c-0.1-2.6,0-5.3,0-8
		C16.9,4.1,17.1,4.3,17.2,4.5"/>
	<path class="st1" d="M50.6,8.6c-0.1,0.2-0.4,0.2-0.6,0.1l-0.2-0.1c0.1-0.4,0-1,0.4-1.3C50.5,7.6,50.5,8.2,50.6,8.6"/>
	<path class="st1" d="M16.7,14.4c-0.1,0.2-0.5,0.1-0.7,0.2h-1.3c-1.1,0-2.1-0.1-3,0.1c-0.2,0-0.3-0.2-0.3-0.4
		c0.1-0.4,0.6-0.2,0.9-0.4c1.3,0,2.8,0,4,0C16.4,14,16.6,14.2,16.7,14.4"/>
	<path class="st1" d="M9.9,14.2c0,0.2-0.2,0.4-0.4,0.5c-1.3-0.4-2.7-0.1-4.1-0.3l0,0C5.5,14.2,5.7,14,6,14C7.4,14,8.7,14,9.9,14.2"
		/>
	<path class="st1" d="M49.8,14.4c0.1,0.1,0.1,0.3,0,0.3c-0.5,0.6-1.1-0.1-1.7,0c-1.1-0.1-2.2,0-3.3-0.1c0.3-0.9,1.5-0.4,2.2-0.5
		C47.9,14.2,49,13.9,49.8,14.4"/>
	<path class="st1" d="M55.7,14.2c0.2,0.1,0.4,0.3,0.4,0.5c-1.7,0.2-3.3-0.2-4.9,0.2c-0.2,0-0.3-0.3-0.2-0.5c0.3-0.4,0.9-0.3,1.3-0.4
		L55.7,14.2z"/>
	<path class="st1" d="M11.3,15c0.1,0.3,0,0.7-0.2,0.9c-0.2,0.2-0.5,0.2-0.7,0.1C10,16,10,15.7,10,15.5c-0.1-0.4,0.4-0.6,0.6-0.9
		C10.9,14.6,11.1,14.8,11.3,15"/>
	<path class="st1" d="M50.9,15.3c0,0.4,0,0.9-0.4,0.9c-0.3,0-0.6-0.1-0.7-0.4c-0.1-0.4,0.2-0.8,0.4-0.9C50.6,14.8,50.8,15,50.9,15.3
		"/>
	<path class="st1" d="M36.1,3.9c0,3.2,0,6.4,0,9.6l-0.2,0.1c-1.7,0.2-3.4-0.3-5,0.3c-0.3-0.2,0-0.6-0.1-0.9V4.4
		c0-0.3,0.2-0.5,0.4-0.6c0.4-0.3,1.1-0.2,1.6-0.3L36,3.6L36.1,3.9z"/>
	<path class="st1" d="M38,3.8c0,0.7,0,1.4,0.1,2.1c0.5,0.4,1.9-0.2,1.6,0.9c-0.4,0.3-1.1,0.1-1.5,0.2l-0.1,0.2
		c-0.2,1.6,0.1,3.3,0,4.7c0,0.2,0.1,0.4,0.4,0.5c0.4,0,1.1-0.3,1.3,0.3c-0.1,1-1.3,0.1-1.7,0.9c-0.1,0.7,0.2,1.4-0.1,2.1l-0.2,0.1
		c-2.1,0-4.1,0-6-0.1c-0.1,0,0-0.2,0-0.2l0.4-0.2c1.6-0.2,3.4,0,5.1-0.2c0.2,0,0.4-0.2,0.4-0.5c0-3.1,0-6.3,0-9.7
		C37.6,4.3,37.1,4,37,3.6C37.3,3.6,37.9,3.4,38,3.8"/>
	<path class="st1" d="M24.5,3.6C24.5,4,24.1,4.1,24,4.4c-0.2,0.6,0,1.3-0.1,2c0,2.8,0,5.4,0,8.2c0,0.2,0.2,0.4,0.4,0.5l4.3,0.1
		c0.2,0,0.5,0.1,0.7,0.3c-0.1,0.2-0.4,0.2-0.6,0.2c-1.6,0-3.4,0.1-4.9-0.1l-0.2-0.1c0-0.7,0-1.5-0.3-2.2c-0.5-0.2-1.1,0-1.6-0.2
		c-0.2-0.1-0.2-0.4,0-0.6c0.5-0.3,1.5,0.2,1.8-0.6c0-1.6,0.1-3.1,0-4.7c-0.4-0.6-1.4,0-1.8-0.6c0.2-0.9,1.5-0.1,1.8-0.9l0.1-1.9
		C23.9,3.5,24.3,3.6,24.5,3.6"/>
	<path class="st1" d="M25.2,4.2c0.1,2.8-0.2,5.3,0,8.1c-0.2,0.6,0.3,1.6-0.7,1.7c-0.2-2.8,0-5.8-0.1-8.8C24.3,4.7,24.6,4.3,25,4
		L25.2,4.2z"/>
	<path class="st1" d="M37.2,4.7c0,3.1,0.1,6.4-0.1,9.4c-0.2,0-0.4-0.2-0.4-0.3c0-1.3-0.2-2.5-0.1-3.9c0.1-1.7-0.1-3.8,0.1-5.6
		C36.9,4.2,37.2,4.4,37.2,4.7"/>
	<path class="st1" d="M29.8,14.2c0.2,0,0.4,0.2,0.2,0.4l-0.3,0.3c-1.4-0.5-3.2-0.2-4.7-0.4c0.1-0.2,0.2-0.4,0.4-0.6
		C26.9,14.1,28.4,13.9,29.8,14.2"/>
	<path class="st1" d="M36.2,14c0.2,0.1,0.4,0.3,0.4,0.5l-0.2,0.1c-1.7,0-3.4-0.2-5,0.2c-0.2,0-0.5,0-0.6-0.3
		c0.2-0.4,0.6-0.5,1.1-0.5C33.4,13.9,34.8,14,36.2,14"/>
	<path class="st1" d="M31,15.4c0,0.3,0,0.7-0.4,0.7c-0.3,0-0.7,0-0.7-0.4c0.1-0.3,0.3-0.5,0.6-0.7C30.8,14.9,30.9,15.2,31,15.4"/>
	<path class="st1" d="M30.2,10.3c0.2-1.6,0-3.4,0.1-5c0-0.5,0-1.1-0.3-1.4c-1.2-0.5-2.8-0.2-4.1-0.3c-0.1,0-0.2,0-0.2,0.1
		c0,3.2,0,6.2,0,9.4l0.1,0.4c1,0.2,1.9,0.1,3,0.1c0.5,0.1,1.1,0.2,1.5,0.3c0-1.1,0.1-1.9,0-3L30.2,10.3z"/>
	<path d="M28.5,8.2c-0.3,0-0.7,0.2-0.8-0.2c0-0.5-0.2-1.2,0-1.7c0.4-0.3,0.9-0.2,1.2,0.2c0.2,0.3,0.2,0.6,0.2,1
		C28.9,7.7,28.8,8.1,28.5,8.2 M29.8,10.1c-0.5-0.4-0.6-1-1-1.5c0.2-0.2,0.4-0.3,0.7-0.5c0.3-0.3,0.6-0.8,0.5-1.3
		c0-0.4-0.2-0.8-0.6-1c-0.9-0.3-1.9-0.2-2.8-0.1c-0.2,0.1-0.2,0.2-0.1,0.4c0.3,0.1,0.4,0.4,0.5,0.6c0,1.1,0,2.2-0.2,3.3l-0.4,0.5
		c0.4,0.4,1.1,0.1,1.7,0.2c0.2-0.3-0.3-0.5-0.4-0.8c0.1-0.3,0-0.8,0.2-1.1c0.6,0.5,0.8,1.4,1.5,1.9l1,0.1l0-0.5
		C30.1,10.4,29.9,10.2,29.8,10.1"/>
	<path class="st1" d="M55.5,4.7c0-0.4,0-0.8-0.2-1.1l-1.5,0c-1.1,0.2-2.2-0.2-3.1,0.4c-0.4,0.5-0.2,1.1-0.3,1.6
		c0.1,0.3,0.2,0.7,0.3,1L50.6,7L50,6.9l-0.2-0.4C49.9,6.3,50,6,50,5.8c0-0.7,0.2-1.7-0.7-2c-1.3-0.1-2.6-0.2-4-0.2
		c-0.1,0-0.2,0-0.2,0.1c0,3.1,0,5.8,0,8.9c0,0.4-0.1,0.9,0.3,1c1.2-0.2,2.2,0,3.4,0c0.4,0,0.7,0.4,1.2,0.3c0.1-1.3,0.1-2.8,0.1-4.1
		c0-0.1,0-0.4-0.2-0.4l0-0.3l0.7,0.1l0.1,0.2c0,0,0,0-0.1,0.1l-0.1,4.2c0,0.1,0,0.4,0.3,0.4c1.3-0.7,2.8-0.2,4.3-0.4l0.3-0.1
		c0.2-0.7,0.1-3.2,0.1-3.2C55.6,8.5,55.5,6.6,55.5,4.7"/>
	<path d="M50,8.7l-0.2-0.1c0.1-0.4,0-1,0.4-1.3c0.4,0.2,0.3,0.8,0.5,1.3C50.5,8.8,50.2,8.8,50,8.7 M50.8,9.3
		c0.2,0.2,0.3,0.5,0.2,0.8l-0.3,0.4l0.2,0.2c0.5,0,1.1,0.1,1.6-0.1c-0.1-0.2-0.4-0.3-0.6-0.5c-0.6-1.5-1-3.1-1.4-4.6L50,5.8
		c-0.3,1.4-0.9,2.6-1.2,4.1c-0.1,0.3-0.4,0.3-0.6,0.5c-0.3,0.1-0.4-0.2-0.5-0.4c0-1.2,0.1-2.2,0-3.5c0-0.2,0.2-0.4,0.4-0.2
		c0.3,0.2,0.3,0.6,0.4,0.9c0.1,0.1,0.3,0.1,0.3-0.1l0.2-1.3c-0.2-0.4-0.5,0-0.9,0c-0.6,0-1.5,0.1-2-0.2c-0.5,0.2-0.4,0.9-0.4,1.3
		c0,0.1,0,0.2,0,0.2C46.3,6.7,46.5,6,47,6.2l0,1.2L47,10c-0.2,0.2-0.6,0.3-0.5,0.6c0.7,0.2,1.5,0,2.2,0.1c0.4,0,0.9,0.1,1.2,0
		c0.1-0.1,0-0.2,0-0.3c-0.2-0.1-0.5-0.3-0.4-0.6c0.1-0.2,0.2-0.6,0.5-0.5c0.1,0,0.1,0,0.2,0.1l0.6,0.1v0C50.7,9.3,50.7,9.3,50.8,9.3
		"/>
	<path d="M54.5,6c0,0.3,0.2,0.8,0,1c-0.3-0.2-0.3-0.5-0.8-0.6c-0.2,0-0.5,0-0.5,0.3c-0.1,0.9,0.8,0.9,1.3,1.4
		c0.5,0.5,0.7,1.2,0.5,1.8c-0.2,0.5-0.4,0.7-0.9,0.7c-0.4,0.1-0.7-0.2-1,0c-0.1,0-0.2,0.1-0.3,0l0-1.6c0-0.1,0.1-0.1,0.2-0.1
		c0.2,0.5,0.1,1.2,0.8,1.2c0.2,0,0.5-0.1,0.5-0.4c0.1-1.4-1.8-1.1-1.8-2.6c0-0.3,0.1-0.6,0.2-0.9C53,5.6,53.8,6,54.3,5.6
		C54.5,5.5,54.5,5.8,54.5,6"/>
	<path d="M34.2,5.9c-0.4,0.2-0.9,0.5-0.7,1.1c-0.1,1-0.1,2,0,3l0.7,0.6l0,0.1c-0.7,0-1.3,0.1-2,0c-0.3-0.3,0.4-0.5,0.5-0.7
		c0.1-1.1,0.2-2.3,0.1-3.6C32.5,6,31.9,6.2,32,5.8c0.6-0.1,1.4-0.1,2,0L34.2,5.9z"/>
	<path d="M14.5,6.7c-0.4,0.5-0.5-0.4-0.9-0.5c-0.2,0-0.6-0.1-0.8,0.1c-0.1,0.5-0.2,1,0,1.5c0.2,0.1,0.5,0.1,0.7,0.1
		c0.2-0.2,0.4-0.6,0.7-0.6c0.2,0.2-0.1,0.5,0,0.7c-0.1,0.3,0.2,0.7-0.2,0.8c-0.2-0.1-0.4-0.6-0.7-0.6l-0.6,0c-0.2,0.7-0.1,1.4,0,2.1
		c0.3,0.3,0.7,0,1.1,0c0.5-0.1,0.4-0.9,0.9-0.8c0.1,0.3,0.2,0.7,0.1,1.1l-0.2,0.2l-2.9,0c-0.1,0-0.4,0-0.3-0.2
		c0.9-0.6,0.4-1.7,0.5-2.6c-0.1-0.6,0.4-1.6-0.5-2c0-0.2,0.2-0.2,0.3-0.2c0.7,0,1.7,0.3,2.3-0.3C14.5,5.6,14.4,6.2,14.5,6.7"/>
	<path d="M10,6C9.2,6.7,9.2,7.8,8.8,8.7C8.5,9.2,8.7,10,8.1,10.5c-0.2,0.1-0.4-0.1-0.4-0.3C7.4,8.9,7.1,7.7,6.6,6.5
		c0-0.4-0.9-0.4-0.4-0.7c0.6-0.1,1.1,0.1,1.6,0c0.1,0.4-0.4,0.6-0.3,1c0.4,0.5,0.2,1.3,0.7,1.9l0.2-0.2c0-0.9,1.1-1.8,0.2-2.6
		c0.2-0.4,0.8-0.1,1.2-0.2C10,5.7,10.2,5.8,10,6"/>
	<path class="st1" d="M5.1,4.1c0.2,3.3,0,6.5,0,9.6c0,0.2-0.2,0.4-0.4,0.4c-0.2-1-0.2-2-0.1-3c-0.1-2.1,0-4.4,0-6.5
		C4.6,4.4,4.9,4.2,5.1,4.1"/>
</g>
</svg>
