<?xml version="1.0" encoding="utf-8"?>
<!-- Generator: Adobe Illustrator 21.1.0, SVG Export Plug-In . SVG Version: 6.00 Build 0)  -->
<svg version="1.1" id="Layer_1" xmlns="http://www.w3.org/2000/svg" xmlns:xlink="http://www.w3.org/1999/xlink" x="0px" y="0px"
	 viewBox="0 0 252 360" style="enable-background:new 0 0 252 360;" xml:space="preserve">
<style type="text/css">
	.st0{fill:#8F9697;}
</style>
<g>
	<path class="st0" d="M27.6,83.2l46,17.3l0.1,7.8l21.4,0.1l-0.1-10.7l-10.2-0.1L84.8,85l34.7,0.1l0.3,12.1l-11.5,0.2l0,10.6l27,0.1
		l7.1,7.7l76.5-23.1l13.1,11.6l-8.6,9.2l-9.8-6.1l-9.6,3.2L167.2,160c-3.4,4.7-7.6,7.4-12.9,7.5H70.9c-6.6,0-10.3-3.4-11-10.3
		l0-13.9c0.1-5.4-2.1-9.4-7.5-11.3l-27.4-10.4c-4.7-2.2-6.1-6.2-4.3-11.9L27.6,83.2L27.6,83.2z M60.6,107.7L39,99.6
		c-2.8-1-4.5-0.3-4.8,2.6l-1.4,5.9c-0.9,2.4-0.2,4.1,2.4,4.9l25.4,9.3L60.6,107.7L60.6,107.7z M210.3,139.7
		c0,21.3,19.9,16.8,19.9,1.5c0-8.4-7.7-11.2-7-18.5C224,115.4,210.3,131.3,210.3,139.7z"/>
</g>
</svg>
