<?xml version="1.0" encoding="utf-8"?>
<!-- Generator: Adobe Illustrator 21.1.0, SVG Export Plug-In . SVG Version: 6.00 Build 0)  -->
<svg version="1.1" id="Layer_1" xmlns="http://www.w3.org/2000/svg" xmlns:xlink="http://www.w3.org/1999/xlink" x="0px" y="0px"
	 viewBox="0 0 252 360" style="enable-background:new 0 0 252 360;" xml:space="preserve">
<style type="text/css">
	.st0{fill:#8F9697;}
</style>
<path class="st0" d="M183,199.1c-11.2-11.6-21.3-23.7-30.2-36.4c-0.1-0.2-0.2-0.4-0.1-0.7c0.1-0.2,0.3-0.4,0.5-0.4
	c4.6-0.9,8.9-2.1,12.8-3.5c0.8-0.3,1.3-0.9,1.5-1.7c0.2-0.8,0-1.6-0.6-2.2c-9.1-9.6-17.3-19.6-24.4-30.2c-0.1-0.2-0.2-0.4-0.1-0.7
	c0.1-0.2,0.3-0.4,0.5-0.4c2.4-0.5,4.8-1.1,6.9-1.8c0.8-0.3,1.4-0.9,1.6-1.7c0.2-0.8,0-1.7-0.6-2.3c-9.4-10-17-20.7-22.8-32.6
	c-0.4-0.8-1.2-1.4-2.2-1.4s-1.8,0.5-2.2,1.4c-5.9,12-13.5,22.7-22.8,32.7c-0.6,0.6-0.8,1.4-0.6,2.3c0.2,0.8,0.8,1.4,1.6,1.7
	c2.1,0.7,4.5,1.3,6.9,1.8c0.3,0,0.4,0.2,0.5,0.4c0.1,0.2,0.1,0.5-0.1,0.7c-7.1,10.6-15.2,20.7-24.4,30.2c-0.6,0.6-0.8,1.4-0.6,2.2
	s0.7,1.4,1.5,1.7c3.9,1.4,8.2,2.6,12.8,3.5c0.3,0,0.4,0.2,0.5,0.4c0.1,0.2,0.1,0.5-0.1,0.7c-9,12.7-19,24.8-30.2,36.4
	c-0.6,0.6-0.8,1.4-0.6,2.2c0.2,0.8,0.7,1.4,1.5,1.8c13.8,5.3,31.7,8.2,50.2,8.8v15.5h12.6v-15.5c17.7-0.5,36.1-3.4,50-8.8
	c0.8-0.3,1.2-0.9,1.4-1.8C184,200.5,183.6,199.8,183,199.1z"/>
</svg>
